<?xml version="1.0" encoding="utf-8"?>
<!-- Generator: Adobe Illustrator 26.3.1, SVG Export Plug-In . SVG Version: 6.00 Build 0)  -->
<svg version="1.1" id="圖層_1" xmlns="http://www.w3.org/2000/svg" xmlns:xlink="http://www.w3.org/1999/xlink" x="0px" y="0px"
	 viewBox="0 0 544.63 247.13" style="enable-background:new 0 0 544.63 247.13;" xml:space="preserve">
<style type="text/css">
	.st0{fill-rule:evenodd;clip-rule:evenodd;fill:url(#SVGID_1_);stroke:#070001;stroke-width:0.275;stroke-miterlimit:10;}
	.st1{fill:#444344;}
	.st2{fill-rule:evenodd;clip-rule:evenodd;fill:#F8F8F8;stroke:#070001;stroke-width:0.275;stroke-miterlimit:10;}
	.st3{fill:url(#SVGID_00000151505412512627168950000002361304564312848785_);}
	.st4{fill:#231815;}
	.st5{fill:url(#SVGID_00000083811973588391913870000015812999190287771563_);}
	.st6{fill:url(#SVGID_00000029043132584697600060000006066472535444076702_);}
	.st7{fill:url(#SVGID_00000144297205778549150850000001414802346764514438_);}
	.st8{fill:url(#SVGID_00000158028376314188636710000003348163457305268406_);}
	.st9{fill:url(#SVGID_00000054949564476567381810000011283076003955396789_);}
	.st10{fill:url(#SVGID_00000099629856919111204360000005905149578093171115_);}
	.st11{fill:url(#SVGID_00000023246902343953302340000015053588570236342698_);}
	.st12{fill:url(#SVGID_00000049185128041278898780000015275249572975330225_);}
	.st13{fill:url(#SVGID_00000060008513701817307510000014426717075208232869_);}
	.st14{fill:url(#SVGID_00000145026711998824129010000009034360794597122945_);}
	.st15{fill:url(#SVGID_00000021807010449264429400000000103218257338416274_);}
	.st16{fill:url(#SVGID_00000148634585598299707130000012848559006395143345_);}
	.st17{fill:url(#SVGID_00000013188343830950004430000005032689747895567288_);}
	.st18{fill:url(#SVGID_00000037650350965408570020000008389330310305505970_);}
	.st19{fill:url(#SVGID_00000136404828358446794230000007948926589848150928_);}
	.st20{fill:url(#SVGID_00000064325140492909525860000015382308567187971504_);}
	.st21{fill:url(#SVGID_00000115512471382355390170000013969874141559151505_);}
	.st22{fill:url(#SVGID_00000160885564286582140520000002750303003390289820_);}
	.st23{fill:url(#SVGID_00000067223481787738660680000012816834116543488665_);}
	.st24{fill:url(#SVGID_00000024688945076527399240000015680285806658694583_);}
	.st25{fill:url(#SVGID_00000159430561461344757420000008593944075824736155_);}
	.st26{fill:url(#SVGID_00000014593957608493691450000008894011378045636998_);}
	.st27{fill:url(#SVGID_00000090287215415533845830000010573100909917440390_);}
	.st28{fill:url(#SVGID_00000103957217632135076150000008569123175138992551_);}
	.st29{fill:url(#SVGID_00000076567271998654592350000014538136348405116802_);}
	.st30{fill:url(#SVGID_00000115473188918541097740000007057015733157441154_);}
	.st31{fill:url(#SVGID_00000098179678343227245000000001912227266725053118_);}
	.st32{fill:url(#SVGID_00000110432793054940045510000001683722798904149416_);}
	.st33{fill:url(#SVGID_00000009579761171146782500000004835698506796217233_);}
	.st34{fill:url(#SVGID_00000132075030294667336010000015838431072163550651_);}
</style>
<g>
	<linearGradient id="SVGID_1_" gradientUnits="userSpaceOnUse" x1="137.3346" y1="69.7567" x2="412.1604" y2="186.4371">
		<stop  offset="0" style="stop-color:#5BAABF"/>
		<stop  offset="0.1882" style="stop-color:#62AABF"/>
		<stop  offset="0.376" style="stop-color:#73ABC1"/>
		<stop  offset="0.5639" style="stop-color:#8CABC3"/>
		<stop  offset="0.7517" style="stop-color:#A9ABC5"/>
		<stop  offset="0.9379" style="stop-color:#C7A6C6"/>
		<stop  offset="1" style="stop-color:#D1A4C6"/>
	</linearGradient>
	<path class="st0" d="M191.77,119.29c0,0-4.34,5.78-4.32,11.32c0.02,5.54,1.86,10.76,1.97,12.74c0.11,1.98-0.64,5.9,0.55,8.35
		c1.19,2.44,4.35,4.43,4.99,6.93c0.64,2.5-0.63,4.58,1.45,7.02c2.08,2.44,2.44,1.9,3.19,4.23c0.75,2.33,1.18,2.99,3.86,4.52
		c2.68,1.52,2.6,1.87,3.91,3.64c1.31,1.77,5.52,4.97,9.83,5.37c4.31,0.4,5.62-0.95,2.9-3.18c-2.72-2.23-6.46-6.62-7.97-10.62
		c-1.51-4-3.51-10.19-3.28-16.13c0.22-5.94,0.52-11.24,1.48-14.62c0,0,4.79,6.21,6.42,8.65c1.63,2.44,6.65,9.81,10.61,12.89
		c3.96,3.07,12.02,7.04,13.8,7.98c1.78,0.93,10.27,5.78,11.16,6.35c0.9,0.57,2.68,1.67,3.98,3.81c1.31,2.14,1.99,4.9,4.15,6.89
		c2.16,1.99,4.72,2.62,6.57,3.31c1.85,0.69,2.6,0.54,5.27,3.79c2.67,3.25,2.82,3.23,6.84,5.01c4.01,1.78,8.45,4.91,10.7,6.06
		c2.24,1.15,5.93,2.83,9.7,2.34c3.78-0.5,6.52-1.94,3.39-4.52c-3.13-2.58-7.6-5.98-10.41-9.03c-2.81-3.05-4.45-4.06-7.5-7.85
		c0,0,6.27,2,10.34,2.91c4.07,0.9,11.77,2.59,20.91,2.5c9.15-0.09,15.43-1.05,24.78-4.19c9.35-3.15,16.61-9.27,20.42-12.53
		c3.81-3.26,13.85-13.22,15.06-14.28c1.21-1.06,7.3-7.69,15.04-9.09c7.74-1.4,11.39-0.73,17.4,1.86c6,2.59,11.79,6.58,16.48,9.04
		c4.69,2.46,10.2,5.15,16.02,6.28c5.81,1.13,12.53,0.96,16.86-0.42c0,0-8.62-2.19-18.67-12.82c-10.05-10.63-10.8-11.9-16.66-15.82
		c-5.86-3.92-12.42-4.07-15.01-4.01c0,0,3.16-5.69-2.05-11.61c-5.2-5.92-9.25-6.73-12.78-12.91c-3.53-6.18-4.63-13.46-4.6-13.39
		c0.03,0.07-6.72,4.12-8.09,14.07c-1.58,11.43,6.69,15.23,2.79,22.51c0,0-13.92,4.27-16.4,5.11c-2.48,0.85-13.93,4.82-22.55,2.69
		c-8.63-2.13-21.96-13.28-24.95-16.06c-2.99-2.79-19.86-19.21-22.63-22.05c-2.77-2.84-21.49-18.25-23.13-19.53
		c-1.64-1.28-14.97-11.67-18.61-14.23c-3.64-2.56-14.41-9.73-15.47-10.36c-1.06-0.63-16.54-10.26-18.07-11.13
		c-1.54-0.87-31.56-19.72-45.13-24.17c-13.57-4.44-19.79-4.55-25.65-0.4c-5.87,4.15-2.03,14.77,1.61,20.07
		c3.64,5.3,12.88,18.44,17.39,27.9c4.51,9.46,8.74,21.27,10.8,26.71C182.52,102.64,185.47,112.45,191.77,119.29L191.77,119.29z"/>
	<path class="st1" d="M225.31,65.85c0,0-1.31,2.79,1.19,4.74c2.5,1.95,4.77,0.94,5.54,0.08C232.05,70.67,231.1,65.91,225.31,65.85z"
		/>
	<path class="st2" d="M245.39,111.19c0,0-3.43,1.77-5.42,5.99c-2,4.22-2.23,8.96-2.3,11.62c-0.08,2.66-0.65,4.17-1.04,6.77
		c-0.39,2.6,0.59,5.15,2.28,7.79c1.69,2.64,4.27,5.54,4.51,10.66c0.23,5.13,1.49,6.4,2.72,8c1.23,1.6,2.35,3.21,2.9,6.34
		c0.55,3.13,3.21,6.06,3.2,6.07c0,0.01-12.96-7.27-16.32-8.81c-3.36-1.54-8.18-4.27-12.28-8.98c-4.11-4.71-9.09-13-13.22-17.76
		c-4.13-4.76-10.19-11.1-12.12-12.93c-1.93-1.82-9.76-9.21-12.9-16.34c-3.13-7.12-6.55-16.58-7.63-19.36
		c-1.08-2.78-5.46-15.49-10.3-24.06c-4.84-8.56-11.36-18.09-12.45-19.68c-1.09-1.6-6.58-9.02-7.29-15.27
		c-0.7-6.25,2.39-10.48,9.15-10.39s19.77,6.82,22.27,8.02c2.5,1.2,17.85,9.01,25.57,17.63c7.71,8.62,9.8,14.22,10.84,20.86
		c1.04,6.64,0.29,16.34,5.19,23.55C226.73,99.73,240.75,106.14,245.39,111.19L245.39,111.19z"/>
	<path class="st2" d="M274.75,149.99c0,0-0.15,10.53,0.88,16.27c1.03,5.73,3.76,11.62,9.61,18.42c0,0,10.95,3.77,20.59,4.52
		c0,0-11.84-3.67-18.58-14.03c-6.74-10.36-7.36-15.9-9.14-19.41C276.34,152.26,274.75,149.99,274.75,149.99L274.75,149.99z"/>
</g>
<g>
	<g>
		
			<linearGradient id="SVGID_00000150104777807936464850000006025559557429417913_" gradientUnits="userSpaceOnUse" x1="776.1913" y1="-117.4141" x2="893.858" y2="-117.4141" gradientTransform="matrix(0.9568 -0.2906 0.2906 0.9568 -292.9965 480.214)">
			<stop  offset="0" style="stop-color:#C3E2F4"/>
			<stop  offset="1" style="stop-color:#FFFFFF"/>
		</linearGradient>
		<path style="fill:url(#SVGID_00000150104777807936464850000006025559557429417913_);" d="M525.92,102.99
			c-2.24-4.92-4.65-9.79-7.49-14.39c-2.85-4.6-4.8-9.43-7.24-14.2c-1.62-3.17-3.2-2.47-5.05-1.1c0,0,0,0,0,0
			c-0.69,0.51-1.42,1.12-2.21,1.66c-1.05,0.72-2.41,1.1-3.39,1.88c-1.56,1.24-1.14,1.69-1.34,3.46c-0.17,1.48-0.6,2.04-0.12,3.56
			c0.36,1.12,1.03,1.49,0.84,2.85c-0.04,0.3-0.2,0.62-0.4,0.96c-0.05,0.09-0.11,0.18-0.16,0.27c-0.48,0.76-1.06,1.56-0.89,2.3
			c0,0,0,0,0,0c0,0,0,0,0,0c0.14,0.64,1.61,1.43,2.01,2.07c0.27,0.43,0.46,0.85,0.59,1.29c0.57,1.87-0.02,3.79-0.54,5.75
			c-0.77,2.9-1.4,4.21-3.37,6.64c-1.74,2.14-2.74,5.64-5.19,6.71c-1.91,0.84-3.84,0.41-5.7,1.35c-1.81,0.91-2.3,1.49-3.02,3.18
			c-0.27,0.65-1.23,1.96-1.39,2.52c-0.15,0.53-0.11,0.97,0.02,1.35c0.41,1.16,1.76,1.82,2.08,2.9c0.1,0.33,0.1,0.7-0.05,1.14
			c-0.33,0.96-1.37,1.61-1.77,2.5c-0.58,1.31,0.35,1.48-1.03,2.62c-0.84,0.69-1.87,0.73-2.84,1.12c-1.63,0.66-1.38,0.9-2.43,2.12
			c-1.51,1.75-3.44,1.8-4.42,4.02c-0.83,1.87-1.91,3.05-4.09,3.65c-1.64,0.45-3.57,0.14-5.18,1.33c-2.74,2.03-4.13,7.23-4.38,10.26
			c-0.19,2.35-0.31,2.89-2.1,4.36c-1.39,1.14-3.16,2.67-3.84,4.35c-0.36,0.89-0.02,2.1-0.39,2.86c-0.33,0.68-1.32,1.26-1.88,1.77
			c-1.35,1.22-2.74,2.48-4.25,3.54c-5.53,3.87-12.08,7.61-18.28,10.4c0,0,0,0,0,0c0,0,0,0,0,0c1.48,0.13,4.03-1.06,5.3-1.44
			c1.9-0.57,3.83-1.34,5.62-2.18c1.3-0.61,2.57-1.33,3.81-2.13c0,0,0,0,0,0c4.02-2,7.88-4.09,11.51-6.94
			c4.71-3.71,9.9-5.46,15.79-6.46c2.17-0.37,4.4-0.81,6.4-1.32c1.31-0.33,3.12-1.57,4.21-2.36c1.03-0.73,1.64-2.14,2.43-2.78
			c1.21-0.97,1.94-0.39,3.36-0.83c1.07-0.33,1.83-1.6,2.85-1.96c0.66-0.23,1.26-0.21,1.84-0.08c-0.1,0.08-0.19,0.16-0.26,0.22
			c-0.56,0.45-1.13,0.91-1.64,1.42c-1.2,1.21-2.49,2.17-3.93,3.06c-0.87,0.54-1.5,1.49-2.21,2.2c-0.68,0.68-1.03,1.6-1.84,2.13
			c-0.97,0.63-2.09,1.04-3.06,1.71c-0.82,0.56-1.47,1.31-2.26,1.9c-1.91,1.42-4.51,1.99-6.23,3.61c1.36-0.34,2.51-1.14,3.8-1.66
			c1.63-0.65,3.16-1.45,4.65-2.38c1.81-1.13,3.51-2.36,5.18-3.69c0.92-0.73,1.76-1.47,2.49-2.38c0.63-0.78,1.01-1.52,1.85-2.11
			c0.98-0.7,1.94-1.42,2.94-2.1c0.7-0.48,1.39-0.96,2.06-1.47c0.53,0.17,1.06,0.3,1.62,0.26c-0.02,0.03-0.04,0.05-0.06,0.07
			c-0.96,1.15-1.77,2.48-2.78,3.59c-1.16,1.27-2.69,2.1-3.87,3.38c-0.93,1.01-1.81,2.03-2.94,2.83c-0.96,0.68-2.07,1.46-2.89,2.27
			c1.44-0.85,2.9-1.65,4.34-2.51c1.36-0.82,2.38-2.09,3.55-3.16c1.22-1.12,2.5-2.14,3.61-3.36c1.88-2.04,3.54-4.26,5.28-6.43
			c1.44-1.45,3.22-2.62,4.47-4.24c2.25-2.9,4.15-6.1,6.4-9c1-1.29,2.24-2.49,2.98-3.98c0.57-1.16,0.65-2.39,1.23-3.51
			c1.47-2.84,4.24-2.51,6.66-3.87c2.48-1.39,4.81-3.44,6.83-5.39C531.29,114.01,528.65,108.98,525.92,102.99z M492.34,135.4
			c-0.47,0.7-0.2,1.03,0.01,1.69c0.34,1.07-0.38,1.56-1.15,2.19c-0.24,0.2-0.52,0.42-0.67,0.71c-0.18,0.36-0.02,0.72-0.17,1.06
			c-0.4,0.9-1.47,0.64-2.22,0.95c-0.56,0.23-0.8,0.93-1.39,1.14c-0.54,0.19-1.14-0.14-1.65,0.17c-0.46,0.29-0.78,1.13-1.08,1.57
			c-0.38,0.56-0.58,1.33-1.19,1.67c-0.84,0.47-1.22-0.15-1.97-0.37c-1.1-0.33-2,0.63-3.01,0.59c-0.72-0.03-0.92-0.1-1.58,0.32
			c-0.58,0.37-1.02,0.74-1.67,1.01c-0.66,0.28-1.25,0.51-1.85,0.91c-0.49,0.32-1.21,0.81-1.83,0.63c0,0,0.13-0.08,0.34-0.21
			c0.85-0.54,3.06-2.02,3.73-3.19c0.45-0.78,0.83-1.67,1.58-2.23c0.74-0.55,1.62-0.97,2.33-1.59c1.69-1.46,2.31-3.73,3.9-5.23
			c1.14-1.08,2.03-2.61,3.23-3.66c0.28-0.24,0.58-0.46,0.9-0.64c1.55-0.86,0.93,1.21,0.67,2.01c-0.17,0.55-0.11,0.91-0.13,1.44
			c-0.02,0.52-0.39,0.96-0.41,1.44c1.21,0.07,1.72-1.69,2.55-2.33c0.58-0.45,2.54-1.73,3.27-1.57
			C493.89,134.07,492.6,135,492.34,135.4z"/>
		<g>
			<path class="st4" d="M526.08,102.9c-1.67-3.66-3.42-7.28-5.38-10.79c-1.94-3.48-4.04-6.83-5.78-10.43
				c-0.88-1.82-1.73-3.66-2.62-5.48c-0.62-1.27-1.19-2.92-2.39-3.79c-1.74-1.27-3.63,0.54-4.97,1.57c-1.42,1.08-3.13,1.64-4.53,2.72
				c-0.73,0.57-1.21,1.17-1.32,2.09c-0.08,0.69-0.07,1.38-0.18,2.07c-0.1,0.61-0.28,1.22-0.25,1.84c0.06,1.61,1.56,2.91,0.87,4.54
				c-0.39,0.92-1.57,1.93-1.25,3.05c0.29,1.03,1.69,1.51,2.22,2.43c1.16,2.03,0.42,4.47-0.15,6.56c-0.4,1.48-0.87,2.93-1.66,4.26
				c-0.78,1.3-1.83,2.4-2.63,3.69c-0.77,1.25-1.4,2.61-2.33,3.76c-2.31,2.86-6.39,1.55-9.12,3.84c-0.92,0.77-1.25,1.86-1.83,2.87
				c-0.55,0.97-1.38,1.92-1.16,3.11c0.29,1.58,2.29,2.2,2.09,3.88c-0.18,1.46-1.74,2.14-1.94,3.62c-0.1,0.78-0.07,1.21-0.77,1.76
				c-0.81,0.64-1.83,0.74-2.77,1.11c-0.9,0.35-1.42,0.76-1.99,1.5c-0.97,1.27-2.22,1.92-3.46,2.85c-1.16,0.88-1.5,2.13-2.3,3.27
				c-1.09,1.55-2.8,2.19-4.62,2.41c-1.36,0.17-2.71,0.29-3.86,1.13c-2.06,1.51-3.1,4.26-3.75,6.63c-0.33,1.19-0.56,2.41-0.67,3.64
				c-0.14,1.51-0.26,2.7-1.41,3.78c-1.18,1.11-2.5,2.03-3.52,3.31c-0.4,0.5-0.79,1.06-1.01,1.66c-0.27,0.74-0.12,1.5-0.25,2.26
				c-0.18,0.99-0.9,1.43-1.62,2.02c-0.77,0.63-1.49,1.33-2.25,1.97c-1.54,1.32-3.22,2.47-4.91,3.58c-3.35,2.2-6.82,4.22-10.38,6.07
				c-1.75,0.91-3.52,1.76-5.31,2.58c-0.2,0.09-0.06,0.42,0.15,0.36c0,0,0,0,0,0c-0.05-0.12-0.1-0.24-0.15-0.36c0,0,0,0,0,0
				c-0.19,0.09-0.08,0.36,0.1,0.36c1.82,0.06,3.55-0.86,5.24-1.41c2.31-0.75,4.59-1.6,6.75-2.71c2.16-1.11,4.28-2.34,6.42-3.5
				c2.23-1.21,4.41-2.51,6.47-4c1.96-1.42,3.82-2.9,5.98-4.02c2.2-1.14,4.54-1.99,6.94-2.62c4.47-1.17,9.59-1.1,13.56-3.65
				c0.83-0.54,1.67-1.07,2.3-1.84c0.83-1.01,1.43-2.29,2.88-2.46c0.92-0.11,1.78-0.03,2.6-0.54c1.41-0.88,2.02-2.07,3.92-1.73
				c-0.03-0.11-0.06-0.22-0.09-0.33c-1.94,1.59-3.72,3.24-5.8,4.67c-1.76,1.21-2.64,3.46-4.42,4.56c-0.99,0.62-2.09,1.01-3.03,1.73
				c-0.93,0.71-1.7,1.57-2.71,2.17c-1.82,1.09-3.88,1.7-5.49,3.12c-0.15,0.13,0.01,0.38,0.19,0.33c1.03-0.29,1.94-0.78,2.9-1.25
				c1.16-0.57,2.37-1.02,3.51-1.62c2.32-1.21,4.48-2.73,6.55-4.32c0.88-0.68,1.76-1.37,2.53-2.17c0.8-0.83,1.37-1.89,2.23-2.65
				c1.08-0.96,2.4-1.75,3.59-2.57c0.43-0.3,0.9-0.77,1.38-0.98c0.53-0.23,1.29,0.03,1.86,0.03c-0.05-0.11-0.09-0.22-0.14-0.33
				c-0.92,1.14-1.71,2.39-2.68,3.49c-1,1.14-2.29,1.93-3.4,2.94c-1.02,0.93-1.85,2.04-2.91,2.93c-1.16,0.97-2.45,1.73-3.54,2.78
				c-0.16,0.15,0.05,0.42,0.24,0.31c1.31-0.77,2.64-1.49,3.94-2.28c1.19-0.72,2.14-1.62,3.12-2.59c2.12-2.11,4.37-3.96,6.29-6.28
				c0.98-1.19,1.93-2.4,2.88-3.61c0.97-1.23,2.19-2.15,3.35-3.19c2.1-1.9,3.6-4.37,5.19-6.69c0.86-1.27,1.73-2.54,2.66-3.76
				c0.89-1.16,1.93-2.22,2.74-3.45c0.68-1.05,0.93-2.13,1.32-3.3c0.56-1.72,1.6-2.86,3.29-3.5c0.93-0.35,1.9-0.58,2.81-0.96
				c1.25-0.52,2.39-1.31,3.46-2.11c2.12-1.58,4.47-3.44,5.95-5.65C530.94,112.6,528.1,107.31,526.08,102.9
				c-0.1-0.23-0.44-0.03-0.34,0.2c2.02,4.41,4.86,9.7,1.56,14.23c-1.69,2.32-4.3,4.38-6.66,5.97c-1.04,0.7-2.09,1.27-3.28,1.67
				c-0.92,0.31-1.87,0.54-2.74,1c-2.21,1.16-2.4,3.23-3.26,5.32c-0.58,1.41-1.62,2.51-2.58,3.67c-0.87,1.05-1.67,2.16-2.45,3.28
				c-1.69,2.43-3.22,5.14-5.28,7.28c-0.86,0.89-1.84,1.65-2.76,2.47c-1.12,1-1.98,2.21-2.91,3.38c-1.05,1.33-2.12,2.65-3.27,3.89
				c-1.12,1.21-2.41,2.24-3.61,3.36c-1.16,1.07-2.17,2.26-3.51,3.13c-1.4,0.91-2.9,1.67-4.34,2.51c0.08,0.1,0.16,0.2,0.24,0.31
				c1.05-1,2.27-1.74,3.38-2.65c1.13-0.92,2-2.08,3.07-3.06c1.05-0.96,2.28-1.72,3.25-2.77c1.04-1.13,1.87-2.46,2.83-3.66
				c0.1-0.13,0.04-0.33-0.14-0.33c-0.48,0-1.23-0.36-1.65-0.26c-0.31,0.07-0.66,0.46-0.92,0.65c-1.08,0.77-2.17,1.51-3.24,2.28
				c-1.93,1.4-3.11,3.4-4.95,4.91c-2.07,1.7-4.29,3.28-6.61,4.6c-1.14,0.65-2.32,1.19-3.52,1.71c-1.26,0.54-2.43,1.26-3.75,1.64
				c0.06,0.11,0.13,0.22,0.19,0.33c1.73-1.53,4-2.09,5.89-3.37c0.98-0.67,1.77-1.58,2.76-2.24c1-0.67,2.23-1.02,3.16-1.8
				c0.64-0.54,1.05-1.32,1.6-1.95c0.83-0.96,1.63-1.82,2.7-2.51c1.96-1.27,3.55-2.92,5.34-4.39c0.11-0.09,0.05-0.3-0.09-0.33
				c-0.73-0.13-1.45-0.15-2.14,0.17c-1.06,0.49-1.68,1.59-2.84,1.92c-0.84,0.24-1.74,0.03-2.55,0.39c-0.67,0.29-1.13,0.84-1.55,1.41
				c-1.36,1.82-3.35,3.39-5.56,4.07c-2.53,0.77-5.21,1.09-7.8,1.59c-4.56,0.88-9.01,2.4-12.88,5.01c-2.09,1.41-4.01,3.02-6.16,4.34
				c-2.22,1.37-4.56,2.5-6.85,3.74c-2.58,1.41-5.03,2.81-7.83,3.81c-1.16,0.41-2.33,0.78-3.48,1.2c-1.13,0.41-2.32,0.87-3.53,0.82
				c0.03,0.12,0.07,0.24,0.1,0.36c0,0,0,0,0,0c0.2-0.09,0.06-0.42-0.15-0.36c0,0,0,0,0,0c0.05,0.12,0.1,0.24,0.15,0.36
				c3.56-1.61,7.03-3.41,10.41-5.38c3.15-1.84,6.35-3.75,9.21-6.02c1.36-1.08,2.66-2.26,3.99-3.39c1.3-1.09,0.84-2.04,1.19-3.55
				c0.41-1.75,2.15-3.16,3.47-4.26c0.79-0.67,1.7-1.31,2.13-2.29c0.46-1.03,0.4-2.24,0.54-3.34c0.19-1.42,0.52-2.83,0.99-4.19
				c0.5-1.47,1.17-2.95,2.18-4.14c1.3-1.53,2.93-1.82,4.83-2.05c2.68-0.34,4.34-1.61,5.54-3.98c0.78-1.54,2.13-2.11,3.43-3.1
				c0.9-0.69,1.4-1.79,2.29-2.44c1.18-0.86,2.8-0.77,3.94-1.68c0.89-0.71,0.71-1.2,0.92-2.18c0.3-1.37,1.88-2.06,2.04-3.5
				c0.14-1.28-0.97-2-1.66-2.89c-1.32-1.7,0.22-3.12,0.94-4.67c0.65-1.39,1.46-2.29,2.88-2.95c1.8-0.84,3.87-0.53,5.67-1.34
				c1.01-0.46,1.77-1.28,2.4-2.18c0.86-1.22,1.48-2.59,2.31-3.82c0.81-1.2,1.79-2.25,2.5-3.52c0.62-1.12,1.02-2.33,1.36-3.56
				c0.47-1.7,1.07-3.53,0.83-5.32c-0.15-1.14-0.6-2.17-1.47-2.93c-0.41-0.36-1.17-0.78-1.33-1.34c-0.26-0.92,0.85-1.97,1.22-2.75
				c0.45-0.95,0.25-1.8-0.18-2.7c-0.41-0.86-0.71-1.67-0.59-2.64c0.09-0.77,0.28-1.51,0.34-2.28c0.04-0.55-0.01-1.13,0.21-1.65
				c0.34-0.81,1.23-1.37,1.96-1.77c0.69-0.37,1.43-0.65,2.1-1.06c0.83-0.5,1.58-1.15,2.36-1.73c0.81-0.61,1.87-1.48,2.96-1.22
				c1.72,0.41,2.57,3.24,3.25,4.64c1.7,3.51,3.29,7.08,5.25,10.45c1.99,3.43,3.99,6.81,5.74,10.37c0.85,1.73,1.67,3.48,2.48,5.24
				C525.85,103.32,526.19,103.12,526.08,102.9z"/>
			<path class="st4" d="M492.17,135.3c-0.19,0.35-0.31,0.61-0.27,1.01c0.09,0.91,0.62,1.44-0.19,2.28
				c-0.35,0.37-0.87,0.61-1.17,1.03c-0.44,0.62-0.44,1.63-1.21,1.94c-0.41,0.16-0.88,0.08-1.29,0.28c-0.43,0.2-0.62,0.63-0.99,0.89
				c-0.67,0.48-1.39,0.03-2.04,0.42c-0.34,0.2-0.55,0.6-0.74,0.93c-0.29,0.49-0.54,1.02-0.84,1.5c-0.44,0.7-0.75,1.1-1.73,0.78
				c-0.18-0.06-0.34-0.19-0.51-0.26c-1.22-0.48-2.13,0.43-3.33,0.48c-0.39,0.02-0.75-0.06-1.13,0.07c-0.54,0.18-1.01,0.61-1.48,0.9
				c-0.58,0.35-1.22,0.56-1.82,0.87c-0.8,0.4-1.53,1.15-2.48,1.03c0.03,0.12,0.07,0.24,0.1,0.36c1.48-0.9,3.21-1.98,4.14-3.48
				c0.42-0.67,0.7-1.41,1.28-1.96c0.54-0.51,1.25-0.84,1.85-1.25c0.93-0.63,1.63-1.43,2.24-2.36c0.71-1.08,1.28-2.24,2.17-3.2
				c0.95-1.02,1.79-2.13,2.73-3.16c0.47-0.52,1.23-1.49,1.96-1.23c0.46,0.16,0.38,0.18,0.31,0.61c-0.03,0.2-0.09,0.39-0.14,0.58
				c-0.11,0.43-0.23,0.82-0.28,1.26c-0.05,0.43-0.02,0.83-0.15,1.26c-0.08,0.29-0.21,0.54-0.26,0.85c-0.02,0.12,0.05,0.25,0.19,0.25
				c1.44-0.06,1.84-1.73,2.83-2.5c0.56-0.43,1.21-0.81,1.85-1.11c0.24-0.11,1.25-0.61,1.22,0.03c-0.01,0.24-0.62,0.68-0.77,0.88
				c-0.15,0.19,0.12,0.47,0.27,0.28c0.29-0.37,1.18-0.97,0.94-1.55c-0.23-0.55-1.08-0.29-1.47-0.14c-0.84,0.32-1.73,0.84-2.42,1.42
				c-0.82,0.68-1.25,2.25-2.45,2.3c0.06,0.08,0.13,0.16,0.19,0.25c0.11-0.65,0.35-1.21,0.42-1.86c0.07-0.66,0.22-1.24,0.36-1.89
				c0.1-0.46,0.29-1.29-0.26-1.54c-0.7-0.32-1.7,0.69-2.13,1.09c-1.17,1.11-2.11,2.48-3.21,3.66c-0.95,1.02-1.55,2.27-2.32,3.41
				c-0.52,0.77-1.11,1.45-1.87,1.99c-0.59,0.42-1.25,0.73-1.81,1.19c-1.14,0.92-1.51,2.4-2.59,3.39c-0.92,0.84-1.96,1.56-3.03,2.21
				c-0.18,0.11-0.08,0.34,0.1,0.36c0.64,0.08,1.12-0.16,1.67-0.48c0.67-0.41,1.35-0.73,2.06-1.06c0.62-0.28,1.12-0.71,1.72-1.03
				c0.65-0.35,1.14-0.22,1.83-0.32c0.89-0.13,1.65-0.82,2.6-0.57c0.43,0.11,0.78,0.46,1.23,0.53c1.14,0.17,1.62-0.99,2.08-1.79
				c0.4-0.7,0.72-1.64,1.63-1.74c0.51-0.06,0.88,0.1,1.35-0.19c0.63-0.39,0.77-0.91,1.57-1.12c0.46-0.12,0.96-0.08,1.37-0.36
				c0.4-0.27,0.43-0.52,0.57-0.94c0.44-1.25,0.7-1.15,1.46-1.98c0.29-0.31,0.5-0.62,0.54-1.05c0.08-0.82-0.6-1.34-0.12-2.22
				C492.63,135.27,492.29,135.08,492.17,135.3z"/>
		</g>
	</g>
	<g>
		<g>
			
				<linearGradient id="SVGID_00000156549139439021259550000012998493332350338715_" gradientUnits="userSpaceOnUse" x1="805.3972" y1="-121.8006" x2="805.4431" y2="-121.8006" gradientTransform="matrix(0.9568 -0.2906 0.2906 0.9568 -292.9965 480.214)">
				<stop  offset="0" style="stop-color:#C3E2F4"/>
				<stop  offset="1" style="stop-color:#FFFFFF"/>
			</linearGradient>
			<path style="fill:url(#SVGID_00000156549139439021259550000012998493332350338715_);" d="M442.2,129.49
				c0.03,0.06,0.06,0.12,0.1,0.18L442.2,129.49z"/>
			<g>
				<path class="st4" d="M442.04,129.59c0.03,0.06,0.06,0.12,0.1,0.18c0.01,0.02,0.03,0.04,0.05,0.05c0.02,0.02,0.04,0.03,0.07,0.03
					c0.03,0.01,0.05,0.01,0.08,0c0.03,0,0.05-0.01,0.07-0.02c0.04-0.03,0.08-0.07,0.09-0.12c0-0.02,0-0.03,0.01-0.05
					c0-0.04-0.01-0.07-0.03-0.1c-0.03-0.05-0.06-0.1-0.09-0.16c0-0.01-0.01-0.01-0.01-0.02c-0.01-0.02-0.03-0.04-0.05-0.05
					c-0.02-0.02-0.04-0.03-0.07-0.03c-0.03-0.01-0.05-0.01-0.08,0c-0.03,0-0.05,0.01-0.07,0.02c-0.04,0.03-0.08,0.07-0.09,0.12
					c0,0.02,0,0.03-0.01,0.05C442.01,129.53,442.02,129.56,442.04,129.59c0.03,0.05,0.06,0.1,0.09,0.16c0,0.01,0.01,0.01,0.01,0.02
					c0.11-0.07,0.22-0.13,0.34-0.2c-0.04-0.06-0.08-0.11-0.1-0.18c-0.01-0.02-0.03-0.04-0.05-0.05c-0.02-0.02-0.04-0.03-0.07-0.03
					c-0.03-0.01-0.05-0.01-0.08,0c-0.03,0-0.05,0.01-0.07,0.02c-0.04,0.03-0.08,0.07-0.09,0.12c0,0.02,0,0.03-0.01,0.05
					C442.01,129.53,442.02,129.56,442.04,129.59z"/>
			</g>
		</g>
		<g>
			
				<linearGradient id="SVGID_00000109005205762673279150000017861827474098101679_" gradientUnits="userSpaceOnUse" x1="808.4926" y1="-130.425" x2="818.9932" y2="-130.425" gradientTransform="matrix(0.9568 -0.2906 0.2906 0.9568 -292.9965 480.214)">
				<stop  offset="0" style="stop-color:#C3E2F4"/>
				<stop  offset="1" style="stop-color:#FFFFFF"/>
			</linearGradient>
			<path style="fill:url(#SVGID_00000109005205762673279150000017861827474098101679_);" d="M451.02,111.73
				c-0.08,0.23-0.17,0.43-0.26,0.59c-0.61,1.1-1.36,1.64-2.42,2.31c-0.72,0.46-1.85,0.8-2.03,1.78c-0.08,0.42,0.14,0.72,0.14,1.16
				c0,0.72-0.36,1.16-0.71,1.73c-0.31,0.5-0.38,1.13-0.31,1.73c0.07,0.59,0.46,0.97,0.66,1.49c0.37,0.99-0.08,2.15-0.86,2.82
				c-0.28,0.25-0.56,0.49-0.83,0.74c0.2-0.33,0.35-0.66,0.4-0.96c0.19-1.36-0.48-1.73-0.84-2.85c-0.49-1.52-0.05-2.07,0.12-3.56
				c0.2-1.77-0.21-2.22,1.34-3.46c0.98-0.78,2.34-1.16,3.39-1.88C449.6,112.85,450.33,112.25,451.02,111.73z"/>
			<g>
				<path class="st4" d="M450.83,111.68c-0.58,1.56-1.95,2.44-3.34,3.21c-0.43,0.24-0.89,0.51-1.15,0.94
					c-0.34,0.55-0.16,0.99-0.1,1.57c0.09,0.87-0.53,1.4-0.83,2.15c-0.24,0.6-0.28,1.34-0.06,1.95c0.28,0.78,0.82,1.3,0.64,2.21
					c-0.2,1.02-1,1.59-1.72,2.25c0.1,0.08,0.2,0.16,0.31,0.24c0.34-0.61,0.53-1.21,0.42-1.92c-0.09-0.56-0.4-1.02-0.64-1.52
					c-0.77-1.63-0.1-3.18-0.02-4.86c0.03-0.54,0.02-1.08,0.32-1.56c0.43-0.69,1.21-1.18,1.92-1.55c0.75-0.39,1.54-0.7,2.25-1.16
					c0.8-0.52,1.54-1.15,2.3-1.72c0.2-0.15,0-0.49-0.2-0.34c-0.79,0.6-1.55,1.25-2.39,1.78c-0.72,0.45-1.51,0.75-2.26,1.15
					c-1.02,0.55-2.12,1.35-2.27,2.58c-0.09,0.69-0.06,1.39-0.18,2.09c-0.11,0.69-0.32,1.37-0.27,2.08c0.05,0.72,0.3,1.39,0.63,2.02
					c0.5,0.95,0.6,1.75,0.05,2.73c-0.11,0.2,0.14,0.38,0.31,0.24c1.02-0.94,2.22-1.98,1.8-3.55c-0.22-0.8-0.79-1.32-0.74-2.21
					c0.05-0.91,0.72-1.47,0.96-2.3c0.2-0.71-0.29-1.52,0.11-2.14c0.38-0.61,1.18-0.86,1.77-1.22c1.21-0.74,2.26-1.66,2.77-3.02
					C451.29,111.55,450.92,111.45,450.83,111.68z"/>
			</g>
		</g>
	</g>
	<g>
		
			<linearGradient id="SVGID_00000042702765683206901870000010999206330802463110_" gradientUnits="userSpaceOnUse" x1="760.243" y1="-88.7064" x2="794.2293" y2="-88.7064" gradientTransform="matrix(0.9568 -0.2906 0.2906 0.9568 -292.9965 480.214)">
			<stop  offset="0" style="stop-color:#C3E2F4"/>
			<stop  offset="1" style="stop-color:#FFFFFF"/>
		</linearGradient>
		<path style="fill:url(#SVGID_00000042702765683206901870000010999206330802463110_);" d="M439.73,166.08
			c-0.75,1-0.75,2.36-1.73,3.13c-0.6,0.47-1.26,0.7-1.65,1.42c-0.39,0.71-0.41,1.71-1.33,1.97c-0.66,0.18-1.27-0.11-1.97,0.09
			c-0.99,0.29-2.17,0.47-2.96,1.12c-0.6,0.5-0.77,1.21-1.34,1.68c-0.49,0.41-1.1,0.79-1.42,1.37c-0.38,0.67,0.03,1.59-0.7,2.04
			c-0.61,0.38-1.03-0.07-1.4-0.51c-0.26-0.3-0.19-0.34-0.36-0.67c-0.09-0.17-0.15-0.49-0.33-0.58c-1.28-0.69-1.63,1.75-2.26,2.17
			c-0.54,0.35-0.97,0.09-1.36-0.29c-0.48-0.46-0.55-0.64-1.24-0.6c-1.26,0.07-2.51,0.85-3.38,1.7c-0.73,0.7-2.08,2.42-3.14,2.48
			c-0.68,0.04-0.78-0.28-1.19-0.74c-0.29-0.32-1.11-0.5-1.26-0.83c-0.55-1.21,1.56-1.13,2-1.4c0.36-0.23,0.68-0.54,1.08-0.73
			c0.17-0.08,0.37-0.14,0.56-0.21c-0.21,0.13-0.34,0.21-0.34,0.21c0.62,0.18,1.34-0.31,1.83-0.63c0.6-0.4,1.19-0.64,1.85-0.91
			c0.65-0.27,1.09-0.64,1.67-1.01c0.66-0.43,0.86-0.35,1.58-0.32c1.01,0.04,1.91-0.91,3.01-0.59c0.76,0.22,1.13,0.84,1.97,0.37
			c0.61-0.34,0.82-1.1,1.19-1.67c0.3-0.44,0.62-1.28,1.08-1.57c0.51-0.32,1.11,0.02,1.65-0.17c0.59-0.21,0.82-0.9,1.39-1.14
			c0.75-0.31,1.82-0.05,2.22-0.95c0.15-0.34,0-0.7,0.17-1.06c0.14-0.29,0.42-0.51,0.67-0.71c0.77-0.63,1.5-1.11,1.15-2.19
			c-0.21-0.66-0.48-0.99-0.01-1.69c0.26-0.39,1.55-1.32,0.55-1.54c-0.72-0.16-2.68,1.12-3.27,1.57c-0.83,0.64-1.34,2.4-2.55,2.33
			c0.02-0.48,0.39-0.92,0.41-1.44c0.02-0.53-0.04-0.89,0.13-1.44c0.25-0.8,0.88-2.87-0.67-2.01c-0.32,0.18-0.62,0.4-0.9,0.64
			c0.13-0.52,0.28-1.03,0.53-1.46c0.65-1.14,1.79-2,2.58-3.02c0.52-0.67,0.64-1.36,1.56-1.58c0.95-0.23,1.47-0.09,1.47,0.85
			c0,0.85-0.43,1.32-0.94,1.97c-0.25,0.32-1.13,1.21-0.73,1.66c0.69,0.78,2.01-1.91,3.17-1.01c0.55,0.43-0.18,1.4-0.34,1.88
			c-0.25,0.74-0.11,1.08,0.29,1.67c0.69,1.02,0.98,1.55,2.26,0.98c0.29-0.13,1.84-0.84,2.13-0.52
			C441.28,164.44,439.88,165.88,439.73,166.08z"/>
		<g>
			<path class="st4" d="M439.56,165.99c-0.44,0.67-0.61,1.39-0.96,2.1c-0.45,0.9-1.24,1.18-1.91,1.82c-0.45,0.43-0.58,0.9-0.83,1.44
				c-0.34,0.74-0.76,1.1-1.6,1.11c-0.44,0.01-0.82-0.03-1.25,0.05c-1.31,0.25-2.74,0.66-3.57,1.77c-0.57,0.76-1.19,1.26-1.84,1.93
				c-0.34,0.36-0.53,0.72-0.63,1.2c-0.04,0.21,0.01,0.65-0.09,0.78c-0.22,0.05-0.43,0.11-0.65,0.16c-0.38,0.3-0.66,0.28-0.83-0.06
				c-0.26-0.21-0.31-0.59-0.46-0.87c-0.18-0.34-0.35-0.57-0.78-0.59c-0.78-0.04-1.15,0.83-1.45,1.41c-0.1,0.2-0.2,0.57-0.39,0.72
				c-0.58,0.43-1.25-0.18-1.73-0.49c-0.41-0.27-0.82-0.26-1.31-0.19c-1.38,0.21-2.54,1.1-3.49,2.07c-0.6,0.62-1.24,1.49-2.04,1.85
				c-0.75,0.34-1.14,0-1.67-0.47c-0.21-0.19-0.53-0.26-0.72-0.44c-0.31-0.28-0.26,0.14-0.24-0.58c0.02-0.56,0.08-0.5,0.57-0.63
				c0.23-0.06,0.48-0.08,0.71-0.15c0.73-0.22,1.24-0.81,1.98-1.06c-0.05-0.12-0.1-0.24-0.15-0.36c-0.11,0.07-0.23,0.14-0.34,0.21
				c-0.18,0.11-0.08,0.34,0.1,0.36c0.83,0.1,1.43-0.35,2.11-0.76c1.04-0.62,2.15-1.04,3.17-1.7c0.85-0.55,1.76-0.31,2.68-0.62
				c0.65-0.22,1.17-0.57,1.92-0.38c0.43,0.11,0.77,0.45,1.21,0.52c1.83,0.29,1.95-2.4,3-3.25c0.61-0.5,1.48-0.07,2.14-0.5
				c0.47-0.31,0.72-0.83,1.29-1.03c0.44-0.16,0.94-0.09,1.37-0.29c0.52-0.24,0.61-0.56,0.79-1.06c0.41-1.11,0.43-1.07,1.14-1.68
				c0.29-0.25,0.6-0.52,0.75-0.89c0.34-0.77-0.23-1.48-0.05-2.25c0.16-0.67,0.42-0.71,0.76-1.23c0.08-0.13,0.22-0.3,0.23-0.46
				c0.02-1.02-1.51-0.41-1.95-0.19c-1.36,0.65-2.2,1.42-3.09,2.6c-0.16,0.21-0.45,0.65-0.69,0.74c-0.69,0.24-0.2-0.28-0.11-0.63
				c0.12-0.49,0.06-0.99,0.14-1.48c0.11-0.66,0.46-1.34,0.41-2.02c-0.11-1.48-1.62-0.39-2.25,0.12c0.11,0.06,0.22,0.13,0.33,0.19
				c0.52-1.95,1.94-2.9,3.09-4.43c0.2-0.26,0.33-0.59,0.54-0.83c0.49-0.58,1.81-1.32,2.12,0c0.2,0.86-0.87,1.75-1.33,2.38
				c-0.28,0.39-0.76,1.17-0.13,1.51c0.51,0.28,1.07-0.32,1.43-0.6c0.2-0.16,0.52-0.52,0.8-0.55c0.92-0.09,0.71,0.93,0.49,1.46
				c-0.16,0.39-0.28,0.77-0.21,1.2c0.11,0.67,0.85,1.79,1.5,2.08c0.78,0.34,1.62-0.26,2.34-0.51c0.64-0.22,1.12-0.35,0.55,0.39
				c-0.28,0.36-0.6,0.67-0.89,1.02c-0.16,0.19,0.12,0.47,0.27,0.28c0.31-0.38,1.59-1.42,1.41-1.99c-0.21-0.7-1.54-0.04-1.92,0.11
				c-1.15,0.46-1.85,0.48-2.51-0.69c-0.69-1.22,0.08-1.63,0.25-2.75c0.12-0.82-0.56-1.24-1.3-1c-0.44,0.14-0.79,0.49-1.14,0.77
				c-0.15,0.13-0.31,0.25-0.48,0.36c-0.42-0.37-0.42-0.71-0.01-1.02c0.18-0.23,0.38-0.45,0.55-0.68c0.49-0.65,1.28-2.23,0.22-2.79
				c-1.17-0.62-2.14,0.59-2.69,1.38c-1.18,1.72-2.77,2.71-3.33,4.81c-0.05,0.2,0.18,0.31,0.33,0.19c0.49-0.4,1.54-1.08,1.55-0.01
				c0,0.33-0.16,0.7-0.25,1.02c-0.09,0.32-0.14,0.61-0.18,0.94c-0.08,0.75-0.26,1.37-0.41,2.1c-0.02,0.12,0.05,0.25,0.19,0.25
				c1.34-0.08,1.66-1.41,2.5-2.22c0.52-0.5,1.22-0.89,1.86-1.22c0.28-0.14,0.64-0.42,0.95-0.41c0.82,0.03,0.3,0.44,0.08,0.87
				c-0.19,0.36-0.52,0.58-0.56,1.03c-0.03,0.31,0.1,0.54,0.16,0.83c0.2,0.9-0.06,1.52-0.71,2.07c-0.59,0.51-0.75,0.74-1.09,1.39
				c-0.91,1.76-0.91,0.94-2.19,1.53c-0.25,0.11-0.34,0.21-0.54,0.39c-0.14,0.15-0.27,0.3-0.41,0.45c-0.43,0.28-0.89,0.38-1.36,0.31
				c-0.6,0.13-0.8,0.12-1.2,0.64c-0.48,0.61-0.67,1.53-1.2,2.09c-0.45,0.26-0.9,0.52-1.36,0.78c-0.25-0.11-0.49-0.23-0.73-0.36
				c-0.26-0.1-0.48-0.19-0.76-0.21c-0.74-0.05-1.35,0.38-2.04,0.56c-0.69,0.18-1.33-0.04-1.99,0.26c-0.82,0.38-1.52,0.97-2.35,1.34
				c-0.95,0.43-2.12,1.48-3.19,1.35c0.03,0.12,0.07,0.24,0.1,0.36c0.11-0.07,0.23-0.14,0.34-0.21c0.18-0.11,0.07-0.43-0.15-0.36
				c-0.71,0.24-1.21,0.78-1.89,1.04c-0.5,0.18-1.08,0.13-1.53,0.44c-0.81,0.55-0.34,1.27,0.32,1.65c0.56,0.32,0.96,0.99,1.58,1.16
				c0.57,0.15,1.14-0.17,1.58-0.49c1.64-1.16,2.56-3,4.64-3.55c0.96-0.26,1.4,0.22,2.11,0.68c0.14,0.09,0.29,0.19,0.46,0.22
				c0.51,0.1,0.89-0.14,1.17-0.53c0.34-0.48,0.45-1.24,0.91-1.62c0.91-0.76,1.3,1.08,1.96,1.52c0.91,0.61,1.59-0.17,1.74-1.04
				c0.12-0.71,0.24-1.19,0.81-1.72c0.33-0.31,0.73-0.53,1.03-0.87c0.25-0.27,0.4-0.62,0.63-0.91c0.62-0.78,1.38-1.06,2.3-1.31
				c1.71-0.47,3.39,0.19,4.16-1.71c0.35-0.88,0.82-1.3,1.57-1.85c0.29-0.22,0.56-0.42,0.79-0.72c0.61-0.8,0.75-1.86,1.31-2.7
				C440.03,165.97,439.7,165.78,439.56,165.99z"/>
		</g>
	</g>
	<g>
		
			<linearGradient id="SVGID_00000121243249653811942080000002025802692181760145_" gradientUnits="userSpaceOnUse" x1="450.1866" y1="-141.0757" x2="555.6772" y2="-141.0757" gradientTransform="matrix(0.9572 -0.2893 0.2893 0.9572 -291.9368 478.242)">
			<stop  offset="0" style="stop-color:#C3E2F4"/>
			<stop  offset="1" style="stop-color:#FFFFFF"/>
		</linearGradient>
		<path style="fill:url(#SVGID_00000121243249653811942080000002025802692181760145_);" d="M202.64,218.4
			c-1.71-0.06-3.63-0.23-5.68-0.6c-1-0.18-0.97-1.12-2.16-1.29c-0.58-0.08-1.79,0.34-2.45,0.38c-1.65,0.09-3.21-0.07-4.82,0.33
			c-1.74,0.43-3.38,2.04-5.26,1.77c-1.14-0.17-1.85-1.06-2.83-1.52c-0.91-0.43-2.24-0.43-3.03-0.86c-1.55-0.85-2.48-2.71-4.17-3.77
			c-1.75-1.1-3.32-1.78-5.39-2.21c-1.45-0.3-3.81-0.38-4.79-1.59c-0.49-0.61-0.35-1.83-0.76-2.51c-0.49-0.81-1.32-1.22-1.67-2.06
			c-0.8-1.95-0.22-3.1-2.03-4.69c-1.92-1.69-3.11-1.14-5.22-1.82c-2.36-0.76-3.2-3.01-3.99-5.02c-0.89-2.26-2.21-2.45-4.23-3.48
			c-3.27-1.67-7.7-3.4-11.42-3.03c-2.58,0.26-4,0.46-6.39-1.02c-1.9-1.17-4.97-2.28-6.53-3.81c-0.64-0.63-0.86-1.68-1.49-2.34
			c-0.9-0.95-2.24-1.52-3.37-2.18c-1.34-0.78-4.08-2.71-5.79-2.27c-2.51,0.66-0.29,2.52-0.57,4.28c-0.4,2.55-2.89,2.18-4.85,1.3
			c-1.23-0.56-2.58-1.86-3.84-2.21c-1.04-0.29-1.82,0.03-2.9-0.09c-2.24-0.24-5.71-3.22-7.63-1.24c-0.19,0.2-0.35,0.42-0.48,0.66
			c-1.16,2.2,0.22,6,1.34,7.76c1.94,3.03,5.37,3.49,7.98,5.67c1.68,1.4,3.14,3.22,4.71,4.77c0.71,0.7,1.56,1.49,1.91,2.36
			c0.42,1.03,0.08,1.91,0.82,2.97c1.31,1.87,3.47,2.98,5.11,4.45c0.53,0.47,0.99,1.22,1.5,1.62c0.88,0.7,2.04,0.88,2.77,1.79
			c0.76,0.94,0.39,1.69,1.49,2.55c0.65,0.51,2.78,1.48,3.6,1.49c1.45,0.02,0.62-0.07,1.8-1.08c1.05-0.9,1.99-1.29,3.43-1.35
			c2.5-0.1,4.27,0.93,6.26,2.21c3.18,2.04,6.48,2.04,10.06,3.12c4.55,1.37,8.4,3.42,13.24,3.94c1.21,0.13,2.59,0.42,3.81,0.25
			c1.19-0.17,1.99-0.9,3.26-0.81c1.6,0.12,2.69,1.56,4.34,1.84c2.04,0.35,4.49-0.4,6.52-0.64c3.14-0.36,5.87,1.24,8.91,0.9
			c6.27-0.71,12.5-0.16,18.86-0.93c2.64-0.32,5.6-0.73,9.28-2.41C209.9,217.97,206.96,218.55,202.64,218.4z"/>
		<g>
			<path class="st4" d="M202.64,218.21c-1.49-0.06-2.98-0.18-4.46-0.4c-0.72-0.11-1.35-0.16-1.93-0.62
				c-0.28-0.23-0.46-0.5-0.79-0.66c-0.73-0.38-1.49-0.12-2.25,0.03c-1.44,0.29-2.91,0.12-4.37,0.26c-0.99,0.1-1.89,0.35-2.78,0.78
				c-1.5,0.72-3.03,1.75-4.71,0.86c-0.94-0.5-1.63-1.18-2.69-1.45c-1.42-0.36-2.48-0.61-3.55-1.7c-1.63-1.67-3.03-3-5.22-3.94
				c-1.05-0.45-2.15-0.78-3.27-0.99c-1.16-0.22-2.43-0.27-3.5-0.8c-1.39-0.69-1.02-1.85-1.58-3.02c-0.56-1.16-1.64-1.67-2-3.01
				c-0.22-0.82-0.27-1.7-0.65-2.48c-0.44-0.91-1.27-1.67-2.14-2.17c-1.89-1.1-4.28-0.53-5.97-2.13c-1.61-1.52-1.69-3.9-3.13-5.49
				c-1.24-1.38-3.52-2.12-5.17-2.86c-2.2-0.99-4.53-1.82-6.94-2.13c-2.54-0.32-5.19,0.63-7.64-0.33c-1.15-0.45-2.2-1.18-3.3-1.73
				c-1.13-0.57-2.28-1.1-3.34-1.78c-1.17-0.75-1.64-1.6-2.35-2.74c-0.57-0.93-1.5-1.51-2.43-2.03c-1.72-0.97-3.42-2.2-5.29-2.85
				c-1.03-0.36-3.12-0.57-3.4,0.91c-0.13,0.68,0.28,1.38,0.46,2c0.42,1.42-0.09,3-1.74,3.1c-2.49,0.15-4.05-1.92-6.18-2.74
				c-1.06-0.4-2.09-0.12-3.19-0.22c-1.19-0.11-2.28-0.73-3.37-1.19c-1.3-0.55-3.01-1.2-4.27-0.22c-1.36,1.06-1.35,3.07-1.07,4.6
				c0.35,1.9,1.16,3.91,2.48,5.34c1.5,1.62,3.59,2.39,5.46,3.47c2.45,1.41,4.17,3.65,6.13,5.63c1.17,1.19,2.17,2.08,2.43,3.82
				c0.15,1.03,0.51,1.78,1.21,2.55c0.73,0.81,1.61,1.47,2.49,2.13c1.14,0.85,2.08,1.68,3.03,2.71c0.71,0.77,1.59,1.07,2.46,1.6
				c1.23,0.76,1.09,2,1.98,2.94c0.94,0.99,2.86,1.79,4.22,1.83c0.48,0.01,0.7-0.01,1.03-0.3c0.27-0.23,0.45-0.6,0.73-0.85
				c0.64-0.58,1.42-1,2.27-1.18c3.11-0.66,5.41,1.13,7.96,2.52c2.3,1.25,4.91,1.61,7.43,2.19c5.33,1.22,10.13,3.81,15.61,4.5
				c1.13,0.14,2.31,0.37,3.45,0.19c1.59-0.26,2.73-1.22,4.38-0.46c0.94,0.44,1.75,1.14,2.77,1.41c1.06,0.29,2.22,0.18,3.29,0.04
				c1.35-0.18,2.69-0.54,4.05-0.63c1.5-0.09,2.96,0.25,4.41,0.56c2.7,0.57,5.2,0.21,7.93,0.08c5.8-0.28,11.61-0.02,17.36-0.95
				c2.44-0.4,4.77-1.11,7.02-2.11c0.21-0.1,0.05-0.39-0.15-0.36C207.49,218.24,205.03,218.28,202.64,218.21
				c-0.25-0.01-0.25,0.38,0,0.39c2.43,0.07,4.92,0.03,7.32-0.43c-0.05-0.12-0.1-0.24-0.15-0.36c-5.11,2.29-10.7,2.7-16.23,2.82
				c-2.97,0.07-5.95,0.06-8.92,0.24c-1.36,0.08-2.75,0.34-4.12,0.29c-1.47-0.05-2.89-0.47-4.33-0.73c-2.47-0.45-4.62,0.07-7.05,0.39
				c-1.37,0.18-2.75,0.24-4.02-0.4c-0.91-0.46-1.72-1.15-2.75-1.35c-0.95-0.18-1.74,0.14-2.61,0.46c-1.47,0.53-2.92,0.3-4.44,0.1
				c-2.73-0.35-5.3-1.04-7.89-1.98c-2.58-0.93-5.13-1.95-7.82-2.55c-2.66-0.6-5.34-1-7.71-2.44c-1.93-1.17-3.78-2.34-6.12-2.36
				c-1.99-0.02-3.26,0.76-4.63,2.09c-1.27,1.23-4.69-0.82-5.26-2.13c-0.35-0.81-0.54-1.46-1.28-2.02c-1.01-0.77-2.08-1.04-2.95-2.05
				c-1.57-1.83-3.83-2.86-5.4-4.69c-0.97-1.13-0.75-2.28-1.26-3.53c-0.42-1.03-1.34-1.79-2.1-2.55c-1.78-1.78-3.35-3.86-5.46-5.29
				c-1.91-1.29-4.21-1.99-5.91-3.59c-1.64-1.54-2.62-3.98-2.85-6.19c-0.13-1.27,0-2.93,1.21-3.67c1.04-0.64,2.38-0.14,3.41,0.27
				c0.87,0.35,1.71,0.79,2.61,1.09c1.01,0.34,1.9,0.21,2.94,0.22c2.33,0.03,3.98,2.26,6.21,2.82c1.24,0.31,2.73,0.27,3.41-0.99
				c0.3-0.57,0.38-1.24,0.27-1.87c-0.19-1.07-1.24-2.42,0.16-3.09c1.85-0.89,4.42,1.25,5.94,2.14c1.12,0.65,2.45,1.17,3.33,2.15
				c0.79,0.88,1.02,2,1.97,2.77c1.64,1.33,3.69,2.06,5.51,3.08c1.99,1.11,3.55,1.69,5.85,1.5c2.82-0.23,5.36,0.02,8.05,0.95
				c2.2,0.76,4.38,1.78,6.44,2.88c2.09,1.11,2.3,3.31,3.43,5.17c1.02,1.68,2.48,2.44,4.38,2.76c2.48,0.42,4.54,1.43,5.09,4.11
				c0.18,0.88,0.33,1.79,0.88,2.53c0.24,0.32,0.56,0.57,0.83,0.87c0.66,0.73,0.68,1.32,0.89,2.21c0.43,1.78,2.3,2.12,3.88,2.38
				c2.4,0.39,4.68,1.07,6.73,2.43c1.73,1.15,2.77,3.38,4.82,4.02c1.19,0.37,2.23,0.45,3.3,1.17c0.75,0.51,1.45,1,2.39,1.01
				c0.92,0.02,1.78-0.36,2.58-0.76c1.5-0.73,2.78-1.24,4.49-1.31c1.09-0.04,2.2,0.05,3.28-0.15c0.59-0.11,1.22-0.36,1.83-0.26
				c0.64,0.11,0.88,0.54,1.35,0.89c0.72,0.54,1.77,0.54,2.62,0.65c1.28,0.17,2.56,0.27,3.85,0.32
				C202.89,218.61,202.89,218.22,202.64,218.21z"/>
		</g>
	</g>
	<g>
		
			<linearGradient id="SVGID_00000116958292087162368360000000161653042380220563_" gradientUnits="userSpaceOnUse" x1="580.1962" y1="146.1567" x2="685.7052" y2="146.1567" gradientTransform="matrix(1.1369 -0.3453 0.4319 1.422 -692.7897 129.2424)">
			<stop  offset="0" style="stop-color:#C3E2F4"/>
			<stop  offset="1" style="stop-color:#FFFFFF"/>
		</linearGradient>
		<path style="fill:url(#SVGID_00000116958292087162368360000000161653042380220563_);" d="M157.2,153.1
			c-2.08-0.22-4.43-0.63-6.94-1.34c-1.23-0.34-1.28-1.71-2.73-2.06c-0.71-0.17-2.14,0.35-2.94,0.36c-2,0-3.9-0.36-5.83,0.09
			c-2.07,0.49-3.93,2.71-6.24,2.16c-1.39-0.34-2.34-1.69-3.56-2.45c-1.14-0.71-2.75-0.8-3.75-1.51c-1.96-1.37-3.24-4.16-5.38-5.84
			c-2.21-1.74-4.17-2.87-6.73-3.67c-1.78-0.56-4.65-0.86-5.94-2.71c-0.65-0.93-0.57-2.7-1.13-3.73c-0.66-1.22-1.71-1.88-2.2-3.14
			c-1.14-2.91-0.53-4.54-2.86-7.01c-2.48-2.62-3.87-1.92-6.48-3.08c-2.93-1.31-4.13-4.66-5.27-7.66c-1.28-3.37-2.89-3.75-5.43-5.43
			c-4.11-2.71-9.63-5.59-14.11-5.34c-3.11,0.17-4.81,0.35-7.83-2c-2.41-1.87-6.23-3.73-8.25-6.09c-0.83-0.98-1.19-2.52-2.01-3.54
			c-1.17-1.46-2.85-2.4-4.28-3.46c-1.69-1.24-5.18-4.29-7.22-3.78c-2.99,0.75-0.14,3.65-0.33,6.21c-0.27,3.69-3.33,2.95-5.77,1.5
			c-1.54-0.91-3.29-2.92-4.84-3.54c-1.29-0.51-2.2-0.1-3.52-0.36c-2.74-0.54-7.2-5.16-9.36-2.43c-0.22,0.27-0.39,0.58-0.52,0.93
			c-1.23,3.13,0.78,8.79,2.29,11.44c2.61,4.59,6.81,5.54,10.17,8.93c2.16,2.19,4.08,4.96,6.12,7.34c0.92,1.08,2.01,2.3,2.52,3.6
			c0.59,1.53,0.26,2.79,1.25,4.41c1.75,2.84,4.47,4.64,6.58,6.91c0.69,0.74,1.3,1.86,1.95,2.49c1.13,1.1,2.55,1.46,3.51,2.83
			c1,1.43,0.61,2.49,2.03,3.84c0.83,0.79,3.5,2.38,4.49,2.46c1.76,0.15,0.75-0.06,2.09-1.44c1.2-1.23,2.3-1.73,4.05-1.7
			c3.03,0.05,5.26,1.71,7.79,3.74c4.04,3.24,8.04,3.5,12.47,5.37c5.63,2.37,10.48,5.68,16.4,6.83c1.48,0.29,3.17,0.82,4.64,0.67
			c1.43-0.15,2.34-1.15,3.89-0.92c1.96,0.3,3.39,2.49,5.42,3.03c2.5,0.67,5.41-0.23,7.86-0.4c3.78-0.27,7.23,2.29,10.89,2.03
			c7.54-0.53,15.15,0.77,22.8,0.16c3.18-0.25,6.74-0.61,11.05-2.77C165.98,153.06,162.46,153.67,157.2,153.1z"/>
		<g>
			<path class="st4" d="M157.2,152.87c-1.93-0.22-3.83-0.55-5.71-1.02c-0.98-0.25-1.68-0.5-2.34-1.28c-0.34-0.4-0.69-0.77-1.19-0.97
				c-1.08-0.43-2.26,0.17-3.36,0.23c-1.75,0.09-3.47-0.28-5.22-0.02c-1.47,0.22-2.61,1.03-3.9,1.7c-0.79,0.41-1.66,0.75-2.57,0.62
				c-1.07-0.16-1.82-0.85-2.61-1.53c-1.1-0.95-2.18-1.38-3.55-1.82c-1.74-0.55-2.79-1.84-3.87-3.24c-1.98-2.55-4.25-4.55-7.2-5.94
				c-1.31-0.62-2.68-1.03-4.08-1.39c-1.47-0.38-3.34-0.83-4.23-2.19c-0.76-1.16-0.54-2.7-1.24-3.9c-0.33-0.58-0.8-1.05-1.22-1.57
				c-0.71-0.87-1.08-1.84-1.36-2.91c-0.29-1.14-0.44-2.33-0.94-3.41c-0.58-1.28-1.6-2.41-2.71-3.24c-2.21-1.65-5.2-1.29-7.22-3.35
				c-2.27-2.33-2.52-5.68-4.3-8.26c-1.33-1.92-3.73-3.02-5.65-4.23c-2.87-1.79-5.97-3.43-9.29-4.22c-1.44-0.35-2.86-0.45-4.34-0.37
				c-1.48,0.08-2.96,0.14-4.37-0.37c-1.59-0.57-2.86-1.74-4.24-2.67c-1.37-0.92-2.79-1.76-4.12-2.72c-1.55-1.11-2.77-2.26-3.59-4
				c-0.68-1.44-1.5-2.49-2.76-3.47c-1.08-0.84-2.23-1.56-3.32-2.4c-1.12-0.86-2.25-1.75-3.49-2.44c-1.25-0.69-3.91-1.68-4.65,0.27
				c-0.34,0.91,0.2,2.03,0.48,2.87c0.44,1.34,0.93,3.3-0.25,4.43c-1.02,0.98-2.71,0.35-3.8-0.17c-1.54-0.73-2.72-1.92-4.05-2.96
				c-1.04-0.81-2.05-1.34-3.38-1.37c-1.59-0.04-2.7-0.24-4.09-1.01c-1.68-0.93-3.86-2.7-5.92-2.32c-2.24,0.4-2.53,3.31-2.4,5.13
				c0.19,2.62,1.07,5.24,2.23,7.58c1.27,2.57,3.26,4.43,5.61,6.02c1.28,0.87,2.61,1.69,3.81,2.68c1.31,1.08,2.43,2.37,3.5,3.68
				c1.2,1.47,2.34,2.99,3.56,4.44c1.21,1.45,2.59,2.85,3,4.75c0.34,1.58,0.5,2.87,1.46,4.22c0.94,1.33,2.12,2.47,3.32,3.57
				c1.3,1.19,2.63,2.34,3.68,3.77c0.87,1.19,1.76,1.96,2.99,2.77c0.92,0.62,1.66,1.32,2.09,2.35c0.24,0.57,0.37,1.19,0.66,1.75
				c0.51,1.01,1.4,1.67,2.33,2.27c0.91,0.58,3.6,2.39,4.65,1.23c0.33-0.36,0.5-0.87,0.85-1.24c0.64-0.68,1.42-1.23,2.34-1.47
				c1.84-0.48,3.88,0.05,5.51,0.93c1.62,0.87,2.96,2.11,4.44,3.17c1.32,0.95,2.78,1.68,4.29,2.26c3.43,1.32,6.93,2.23,10.27,3.83
				c3.13,1.5,6.19,3.19,9.46,4.39c1.77,0.65,3.58,1.05,5.42,1.45c1.42,0.31,2.92,0.66,4.35,0.21c0.62-0.2,1.2-0.53,1.83-0.67
				c1.06-0.23,2,0.14,2.87,0.72c1.2,0.8,2.24,1.86,3.65,2.26c3.38,0.96,6.83-0.87,10.25-0.24c1.72,0.32,3.34,0.98,5.02,1.43
				c1.62,0.43,3.09,0.45,4.75,0.38c7.88-0.36,15.75,0.92,23.62,0.05c3.2-0.35,6.25-1.2,9.14-2.62c0.25-0.12,0.06-0.46-0.18-0.42
				C163.07,153.32,160.05,153.16,157.2,152.87c-0.3-0.03-0.29,0.43,0,0.46c2.9,0.3,5.95,0.44,8.84-0.05
				c-0.06-0.14-0.12-0.28-0.18-0.42c-6.87,3.37-14.68,3.06-22.13,2.7c-3.88-0.18-7.72-0.27-11.6-0.12
				c-3.39,0.12-6.35-1.79-9.69-2.03c-3.51-0.25-7.28,1.79-10.52-0.33c-1-0.65-1.86-1.53-2.96-2.01c-1.31-0.58-2.38-0.22-3.65,0.27
				c-1.81,0.69-3.58,0.17-5.41-0.22c-1.84-0.39-3.62-0.88-5.38-1.57c-3.48-1.37-6.74-3.25-10.15-4.78
				c-2.91-1.31-6.01-2.04-8.97-3.21c-1.85-0.73-3.46-1.72-5.02-2.94c-1.29-1.01-2.59-2.04-4.1-2.72c-2.16-0.98-4.91-1.29-6.9,0.21
				c-0.48,0.37-0.95,0.81-1.3,1.31c-0.29,0.41-0.32,0.75-0.84,0.84c-1.23,0.21-2.79-0.93-3.75-1.55c-1.37-0.89-1.97-1.88-2.53-3.39
				c-0.47-1.28-1.3-2.15-2.42-2.89c-0.71-0.47-1.44-0.89-2.01-1.53c-0.54-0.6-0.94-1.32-1.46-1.94c-1-1.2-2.24-2.21-3.39-3.27
				c-1.25-1.16-2.55-2.4-3.41-3.89c-0.86-1.49-0.69-3.22-1.4-4.76c-0.64-1.37-1.72-2.48-2.68-3.62c-1.22-1.45-2.36-2.98-3.56-4.44
				c-1.93-2.36-4.01-4.18-6.54-5.86c-2.65-1.76-4.95-3.63-6.37-6.56c-1.26-2.6-2.33-5.75-2.11-8.67c0.1-1.37,0.65-3.08,2.23-3.25
				c1.28-0.13,2.63,0.71,3.69,1.31c1.01,0.57,1.99,1.21,3.07,1.65c1.34,0.55,2.7,0.17,4.05,0.53c1.68,0.45,2.93,1.98,4.27,3
				c0.85,0.65,1.8,1.19,2.82,1.54c1.68,0.58,3.49,0.39,4.06-1.53c0.32-1.08,0.16-2.16-0.17-3.22c-0.39-1.27-1.53-3.4,0.5-3.84
				c1.34-0.29,2.79,0.69,3.85,1.39c1.04,0.69,2.01,1.48,3.01,2.22c1.3,0.97,2.75,1.79,3.89,2.97c1.17,1.21,1.49,2.86,2.54,4.14
				c1.95,2.38,4.97,3.77,7.45,5.51c1.07,0.75,2.07,1.6,3.28,2.12c1.2,0.52,2.44,0.65,3.74,0.62c1.59-0.03,3.09-0.16,4.67,0.14
				c1.85,0.35,3.65,1.03,5.35,1.82c2.82,1.31,5.49,3.01,8.09,4.72c2.51,1.66,3.05,4.34,4.24,6.92c1.15,2.49,2.76,4.4,5.45,5.2
				c1.16,0.35,2.35,0.5,3.41,1.13c1.46,0.87,2.75,2.36,3.32,3.97c0.42,1.18,0.55,2.45,0.93,3.64c0.52,1.6,1.76,2.47,2.48,3.92
				c0.58,1.17,0.41,2.61,1.13,3.73c0.62,0.96,1.73,1.52,2.77,1.89c1.15,0.42,2.35,0.62,3.51,0.99c1.69,0.54,3.29,1.34,4.76,2.33
				c1.43,0.96,2.66,2.03,3.73,3.37c0.96,1.19,1.82,2.54,3.05,3.49c1.11,0.86,2.51,0.94,3.74,1.56c1.32,0.67,2.18,2.04,3.6,2.55
				c2.63,0.94,4.72-1.71,7.14-2.14c1.86-0.34,3.72,0.15,5.58-0.01c0.55-0.05,1.09-0.21,1.63-0.3c1.17-0.19,1.79,0.3,2.51,1.13
				c0.9,1.03,2.22,1.17,3.51,1.45c1.55,0.34,3.12,0.59,4.7,0.77C157.5,153.37,157.49,152.9,157.2,152.87z"/>
		</g>
	</g>
	<g>
		
			<linearGradient id="SVGID_00000111876382764351870110000011131449832561869442_" gradientUnits="userSpaceOnUse" x1="741.2203" y1="-58.0525" x2="797.8892" y2="-58.0525" gradientTransform="matrix(0.9955 -0.0944 0.0944 0.9955 -334.1731 331.4377)">
			<stop  offset="0" style="stop-color:#C3E2F4"/>
			<stop  offset="1" style="stop-color:#FFFFFF"/>
		</linearGradient>
		<path style="fill:url(#SVGID_00000111876382764351870110000011131449832561869442_);" d="M449.75,183.02l-0.78-0.31
			c-1.24,3.12-4.57,5.57-7.4,7.17c-1.36,0.77-2.68,1.22-4.11,1.87c-1.19,0.54-3.49,1.42-4.02,2.66c-0.69,1.61,1.09,3.84-0.19,5.01
			c-1.24,1.13-3.14,0.91-4.64,1.12c-1.11,0.16-4.24,1.6-3.71,3.01c0.23,0.62,1.19,0.91,1.13,1.72c-0.05,0.67-1.53,1.45-2.12,1.98
			c-2.34,2.06-5.03,4.46-7.98,5.6c-1.67,0.64-3.48,0.95-5.17,1.53c-0.84,0.29-1.73,0.63-2.63,0.41c-0.27-2.64-2.65-0.97-3.62,0.4
			c-0.62,0.88-1.02,1.46-1.96,2.09c-0.55,0.38-2.57,0.94-2.77,1.54c-0.06,0.18-0.05,0.32,0.01,0.43c0.62,1.15,7.13-1.13,7.95-1.43
			c3.02-1.08,6.1-2.32,9.29-2.85c5.94-0.98,11.33-4.32,16.53-7.16c1.54-0.84,2.99-1.83,4.52-2.65c1.41-0.76,0.45,0.18,1.49,0.42
			c0.74,0.17,1.3-1.11,1.62-1.54c1.54-2.07,3.76-3.61,5.85-5.12c1.8-1.3,3.11-2.43,4.24-4.4c1.76-3.09,2.22-6.54,2.11-10.07
			L449.75,183.02z"/>
		<g>
			<path class="st4" d="M449.8,182.83c-0.26-0.1-0.52-0.21-0.78-0.31c-0.07-0.03-0.19,0.02-0.22,0.09c-1.13,2.67-3.4,4.62-5.78,6.16
				c-2.3,1.5-4.87,2.35-7.32,3.57c-1.73,0.86-2.89,1.84-2.53,3.88c0.28,1.59,0.83,3-1.18,3.69c-1.14,0.39-2.36,0.23-3.53,0.46
				c-1.25,0.25-3.17,1.06-3.7,2.33c-0.23,0.54-0.09,0.97,0.27,1.41c0.69,0.81,0.74,1.5-0.1,2.14c-0.39,0.3-0.8,0.56-1.18,0.87
				c-2.5,2.05-4.82,4.35-7.9,5.55c-1.4,0.55-2.88,0.83-4.32,1.26c-0.67,0.2-1.45,0.61-2.15,0.67c-1.61,0.14-0.91-0.3-1.48-0.97
				c-0.9-1.06-2.42,0.15-3.1,0.88c-0.82,0.87-1.33,1.98-2.38,2.63c-0.76,0.47-1.77,0.61-2.47,1.2c-0.69,0.58-0.45,1.29,0.4,1.43
				c1.47,0.24,3.25-0.42,4.63-0.83c1.67-0.49,3.31-1.1,4.95-1.69c1.46-0.53,2.92-1.05,4.41-1.46c1.6-0.44,3.25-0.65,4.86-1.06
				c5.69-1.48,11.08-4.67,16.08-7.68c0.81-0.49,1.62-1.01,2.45-1.46c0.2-0.11,0.81-0.56,1.03-0.46c0.06,0.03,0.04,0.24,0.12,0.28
				c0.52,0.22,0.69,0.6,1.33,0.22c0.32-0.19,0.52-0.53,0.72-0.83c0.43-0.65,0.88-1.26,1.42-1.83c1.22-1.28,2.66-2.33,4.09-3.37
				c2.21-1.6,4.15-3.24,5.38-5.73c1.44-2.92,1.8-6.17,1.72-9.38c0-0.09-0.06-0.15-0.14-0.19C452.21,183.79,451,183.31,449.8,182.83
				c-0.23-0.09-0.33,0.28-0.1,0.38c0.6,0.24,1.2,0.48,1.81,0.72c0.35,0.14,0.71,0.28,1.06,0.42c0.13,0.05,0.37,0.1,0.48,0.19
				c0.39,0.32-0.01-0.22,0.14,0.36c0.18,0.69-0.01,1.69-0.06,2.4c-0.07,0.92-0.19,1.83-0.38,2.72c-0.38,1.79-1.05,3.53-2.06,5.07
				c-1.76,2.68-4.69,4.16-7.09,6.18c-1,0.84-1.98,1.76-2.71,2.85c-0.18,0.26-0.35,0.71-0.6,0.9c-0.38,0-0.76-0.01-1.14-0.01
				c-0.02-0.05-0.04-0.09-0.06-0.14c-0.09-0.02-0.18-0.16-0.32-0.18c-0.35-0.06-0.98,0.41-1.23,0.54c-0.69,0.38-1.37,0.8-2.04,1.21
				c-1.68,1.02-3.41,1.96-5.13,2.91c-3.08,1.71-6.22,3.38-9.58,4.49c-1.56,0.51-3.14,0.8-4.74,1.12c-1.97,0.4-3.89,1.06-5.78,1.74
				c-1.87,0.67-3.72,1.37-5.63,1.92c-1.1,0.32-2.24,0.64-3.38,0.74c-0.42,0.04-1.77,0.21-1.02-0.76c0.27-0.35,1.19-0.58,1.55-0.73
				c1.14-0.49,1.9-1.26,2.63-2.24c0.76-1.03,3.1-3.42,3.49-0.77c0.01,0.06,0.08,0.13,0.14,0.14c1.06,0.15,1.94-0.16,2.95-0.48
				c1.29-0.42,2.61-0.7,3.9-1.1c2.17-0.68,4.08-1.85,5.87-3.25c0.91-0.71,1.78-1.46,2.64-2.22c0.71-0.62,1.54-1.12,2.23-1.76
				c0.35-0.33,0.64-0.67,0.55-1.18c-0.14-0.77-1.28-1.13-1.13-1.99c0.15-0.82,1.39-1.44,2.07-1.76c0.93-0.44,1.81-0.55,2.83-0.63
				c1.3-0.1,3.28-0.26,3.83-1.69c0.7-1.8-1.32-3.66,0.46-5.24c1.55-1.38,3.92-2.01,5.78-2.84c2.15-0.96,4.21-2.27,5.96-3.85
				c0.86-0.77,1.65-1.63,2.28-2.59c0.11-0.17,0.67-1.49,0.69-1.5c0.09-0.04,0.61,0.24,0.73,0.29
				C449.93,183.3,450.03,182.93,449.8,182.83z"/>
		</g>
	</g>
	<g>
		<g>
			
				<linearGradient id="SVGID_00000028303194355947290030000003409969562176740253_" gradientUnits="userSpaceOnUse" x1="567.6995" y1="-241.4699" x2="576.2882" y2="-241.4699" gradientTransform="matrix(0.9568 -0.2906 0.2906 0.9568 -292.9965 480.214)">
				<stop  offset="0" style="stop-color:#C3E2F4"/>
				<stop  offset="1" style="stop-color:#FFFFFF"/>
			</linearGradient>
			<path style="fill:url(#SVGID_00000028303194355947290030000003409969562176740253_);" d="M185.24,83.01
				c-1.18-0.07-0.89-0.32-1.7-1.07c-1.13-1.04-2.86,0.17-3.97,0.74c0.17,0.57,0.56,0.35,0.92,0.6c0.46,0.33,0.64,0.72,1.07,1.02
				c0.87,0.62,1.64,0.04,2.63,0.03c1.07-0.01,1.24,0.01,2.24-0.47c0.71-0.34,1.57-0.47,2.37-0.37l-1.22-0.24
				C186.78,83.05,186.01,83.05,185.24,83.01z"/>
			<g>
				<path class="st4" d="M185.24,82.82c-0.28-0.02-0.6-0.02-0.83-0.2c-0.13-0.1-0.23-0.26-0.34-0.39c-0.36-0.43-0.77-0.79-1.34-0.87
					c-1.17-0.16-2.29,0.65-3.27,1.16c-0.07,0.04-0.12,0.14-0.09,0.22c0.1,0.27,0.24,0.46,0.53,0.55c0.21,0.07,0.39,0.09,0.57,0.23
					c0.19,0.15,0.34,0.35,0.51,0.53c0.66,0.72,1.37,0.81,2.3,0.62c0.8-0.17,1.64-0.03,2.42-0.28c0.44-0.14,0.85-0.38,1.29-0.52
					c0.59-0.18,1.19-0.23,1.8-0.16c0.22,0.02,0.27-0.34,0.05-0.38c-0.39-0.08-0.77-0.14-1.16-0.23
					C186.87,82.92,186.07,82.86,185.24,82.82c-0.25-0.01-0.25,0.38,0,0.39c0.81,0.04,1.59,0.11,2.39,0.27
					c0.37,0.08,0.74,0.15,1.11,0.22c0.02-0.13,0.03-0.25,0.05-0.38c-0.89-0.1-1.73,0.06-2.54,0.43c-0.34,0.15-0.67,0.31-1.04,0.36
					c-0.37,0.06-0.74,0.03-1.11,0.05c-0.93,0.04-1.85,0.57-2.65-0.17c-0.29-0.27-0.52-0.62-0.86-0.85c-0.29-0.19-0.71-0.14-0.85-0.5
					c-0.03,0.07-0.06,0.15-0.09,0.22c0.95-0.5,2.37-1.57,3.47-0.96c0.43,0.24,0.64,0.69,1,1c0.3,0.26,0.72,0.29,1.1,0.31
					C185.49,83.22,185.49,82.83,185.24,82.82z"/>
			</g>
		</g>
		<g>
			
				<linearGradient id="SVGID_00000080168681206729352090000017396784512138741163_" gradientUnits="userSpaceOnUse" x1="576.2882" y1="-239.4368" x2="576.7278" y2="-239.4368" gradientTransform="matrix(0.9568 -0.2906 0.2906 0.9568 -292.9965 480.214)">
				<stop  offset="0" style="stop-color:#C3E2F4"/>
				<stop  offset="1" style="stop-color:#FFFFFF"/>
			</linearGradient>
			<path style="fill:url(#SVGID_00000080168681206729352090000017396784512138741163_);" d="M188.79,83.51l0.49,0.1
				C189.12,83.56,188.96,83.53,188.79,83.51z"/>
			<g>
				<path class="st4" d="M188.74,83.7c0.14,0.03,0.28,0.06,0.43,0.08c0.02,0,0.04,0.01,0.06,0.01c0.05,0.01,0.1,0.01,0.15-0.02
					c0.04-0.02,0.08-0.07,0.09-0.12c0.02-0.1-0.03-0.21-0.14-0.24c-0.18-0.05-0.36-0.08-0.54-0.1c-0.05-0.01-0.11,0.03-0.14,0.06
					c-0.03,0.03-0.06,0.09-0.06,0.14c0,0.05,0.02,0.1,0.06,0.14c0.01,0.01,0.03,0.02,0.04,0.03c0.03,0.02,0.06,0.03,0.1,0.03
					c0,0,0.01,0,0.01,0C188.78,83.7,188.77,83.7,188.74,83.7c0.17,0.02,0.33,0.05,0.49,0.1c0.03-0.13,0.07-0.25,0.1-0.38
					c-0.14-0.03-0.28-0.06-0.43-0.08c-0.02,0-0.04-0.01-0.06-0.01c-0.05-0.01-0.1-0.01-0.15,0.02c-0.04,0.02-0.08,0.07-0.09,0.12
					c-0.01,0.05-0.01,0.11,0.02,0.15C188.65,83.65,188.69,83.69,188.74,83.7z"/>
			</g>
		</g>
		<g>
			
				<linearGradient id="SVGID_00000018924644966939884170000005211174064671608737_" gradientUnits="userSpaceOnUse" x1="584.1349" y1="-233.333" x2="591.5199" y2="-233.333" gradientTransform="matrix(0.9568 -0.2906 0.2906 0.9568 -292.9965 480.214)">
				<stop  offset="0" style="stop-color:#C3E2F4"/>
				<stop  offset="1" style="stop-color:#FFFFFF"/>
			</linearGradient>
			<path style="fill:url(#SVGID_00000018924644966939884170000005211174064671608737_);" d="M204.89,85.51l0.36-0.22
				c-1.09,0.57-2.92-0.4-4.22-0.2c-0.71,0.11-3.55,0.58-3.12,1.43c0.16,0.32,0.63,0.13,0.86,0.32c0.2,0.16,0.58,0.83,0.72,0.9
				c0.51,0.24,1.34-0.01,1.84-0.19c0.9-0.32,0.94-0.83,1.62-1.35C203.45,85.81,204.28,85.7,204.89,85.51z"/>
			<g>
				<path class="st4" d="M204.99,85.68c0.12-0.07,0.24-0.14,0.36-0.22c0.22-0.13,0.03-0.44-0.2-0.34c-0.63,0.3-1.39,0.12-2.04-0.01
					c-0.63-0.12-1.29-0.29-1.94-0.23c-0.87,0.08-1.82,0.29-2.62,0.62c-0.3,0.13-0.68,0.3-0.82,0.63c-0.15,0.36,0.1,0.71,0.46,0.78
					c0.12,0.02,0.29,0,0.4,0.05c0.13,0.06,0.21,0.2,0.3,0.31c0.14,0.19,0.26,0.43,0.44,0.58c0.44,0.36,1.25,0.14,1.73-0.01
					c0.34-0.11,0.68-0.23,0.97-0.45c0.25-0.19,0.44-0.45,0.65-0.68c0.61-0.67,1.43-0.78,2.27-1.02c0.24-0.07,0.14-0.45-0.1-0.38
					c-0.6,0.18-1.27,0.26-1.82,0.59c-0.46,0.28-0.73,0.73-1.12,1.08c-0.47,0.42-1.31,0.67-1.93,0.65c-0.32-0.01-0.42-0.1-0.6-0.34
					c-0.13-0.19-0.26-0.4-0.42-0.56c-0.15-0.14-0.31-0.17-0.51-0.19c-0.2-0.02-0.47-0.08-0.33-0.32c0.16-0.28,0.67-0.41,0.95-0.5
					c0.75-0.25,1.64-0.49,2.44-0.47c1.25,0.03,2.64,0.78,3.84,0.2c-0.07-0.11-0.13-0.22-0.2-0.34c-0.12,0.07-0.24,0.14-0.36,0.22
					C204.58,85.47,204.77,85.81,204.99,85.68z"/>
			</g>
		</g>
		<g>
			
				<linearGradient id="SVGID_00000111149168876191163570000009237811430956401827_" gradientUnits="userSpaceOnUse" x1="589.3602" y1="-229.9157" x2="596.9651" y2="-229.9157" gradientTransform="matrix(0.9568 -0.2906 0.2906 0.9568 -292.9965 480.214)">
				<stop  offset="0" style="stop-color:#C3E2F4"/>
				<stop  offset="1" style="stop-color:#FFFFFF"/>
			</linearGradient>
			<path style="fill:url(#SVGID_00000111149168876191163570000009237811430956401827_);" d="M207.3,87.35
				c-0.84-0.13-4.03-0.87-3.39,0.97c0.14,0.39,1.23,1.38,1.65,1.53c0.82,0.29,1.38-0.23,2-0.6c1.34-0.8,2.36-1.28,3.55-2.3
				l0.26-0.19C209.96,87.18,208.78,87.57,207.3,87.35z"/>
			<g>
				<path class="st4" d="M207.35,87.16c-0.7-0.11-1.39-0.26-2.1-0.26c-0.57,0-1.41,0.07-1.59,0.74c-0.23,0.85,0.66,1.57,1.24,2.02
					c0.38,0.3,0.78,0.51,1.28,0.45c0.6-0.06,1.09-0.47,1.6-0.77c0.7-0.42,1.43-0.8,2.11-1.25c0.55-0.36,1.05-0.79,1.58-1.17
					c0.17-0.12,0.07-0.42-0.15-0.36C210.03,86.96,208.73,87.35,207.35,87.16c-0.24-0.03-0.35,0.34-0.1,0.38
					c1.46,0.21,2.8-0.17,4.19-0.59c-0.05-0.12-0.1-0.24-0.15-0.36c-0.37,0.26-0.71,0.57-1.08,0.83c-0.47,0.34-0.96,0.63-1.46,0.92
					c-0.52,0.3-1.04,0.59-1.55,0.91c-0.48,0.31-1.04,0.65-1.62,0.39c-0.36-0.17-0.69-0.48-0.97-0.76c-0.26-0.25-0.53-0.52-0.57-0.89
					c-0.07-0.66,0.75-0.7,1.22-0.7c0.67,0.01,1.33,0.14,2,0.25C207.5,87.57,207.6,87.2,207.35,87.16z"/>
			</g>
		</g>
		<g>
			
				<linearGradient id="SVGID_00000016762205511688662470000009182872681105104014_" gradientUnits="userSpaceOnUse" x1="603.1158" y1="-240.4024" x2="609.0996" y2="-240.4024" gradientTransform="matrix(0.9568 -0.2906 0.2906 0.9568 -292.9965 480.214)">
				<stop  offset="0" style="stop-color:#C3E2F4"/>
				<stop  offset="1" style="stop-color:#FFFFFF"/>
			</linearGradient>
			<path style="fill:url(#SVGID_00000016762205511688662470000009182872681105104014_);" d="M219.52,72.01
				c-1.17,0.26-2.03,1.11-3.14,1.58c-1,0.42-2.19,1.03-1.85,2.38l0.1-0.03C216.29,75.43,221.12,74.93,219.52,72.01z"/>
			<g>
				<path class="st4" d="M219.47,71.82c-0.67,0.16-1.26,0.5-1.84,0.86c-0.56,0.35-1.14,0.63-1.73,0.91
					c-0.47,0.22-0.94,0.5-1.26,0.91c-0.34,0.44-0.41,0.97-0.28,1.51c0.02,0.1,0.14,0.17,0.24,0.14c0.97-0.29,1.97-0.45,2.93-0.76
					c0.91-0.3,2.07-0.76,2.42-1.74c0.21-0.59,0.03-1.21-0.25-1.73c-0.12-0.22-0.45-0.02-0.34,0.2c0.23,0.42,0.39,0.92,0.23,1.4
					c-0.14,0.4-0.47,0.69-0.82,0.91c-0.88,0.55-1.94,0.79-2.93,1.02c-0.45,0.11-0.9,0.2-1.34,0.34c0.08,0.05,0.16,0.09,0.24,0.14
					c-0.26-1.11,0.7-1.7,1.59-2.08c0.55-0.24,1.06-0.54,1.58-0.85c0.53-0.33,1.07-0.63,1.68-0.78
					C219.81,72.14,219.71,71.76,219.47,71.82z"/>
			</g>
		</g>
		<g>
			
				<linearGradient id="SVGID_00000119802487824805946780000008804695406627686023_" gradientUnits="userSpaceOnUse" x1="606.9253" y1="-246.9804" x2="611.6573" y2="-246.9804" gradientTransform="matrix(0.9568 -0.2906 0.2906 0.9568 -292.9965 480.214)">
				<stop  offset="0" style="stop-color:#C3E2F4"/>
				<stop  offset="1" style="stop-color:#FFFFFF"/>
			</linearGradient>
			<path style="fill:url(#SVGID_00000119802487824805946780000008804695406627686023_);" d="M217.5,68.44
				c1.16,0.03,1.83-0.23,2.33-1.31c0.4-0.88,0.97-1.98-0.33-2.19c-1.22-0.2-1.86,1.15-2.48,1.93l-0.46,0.25
				C215.01,67.37,216.83,68.42,217.5,68.44z"/>
			<g>
				<path class="st4" d="M217.5,68.63c0.5,0.01,1.02-0.02,1.48-0.25c0.45-0.22,0.76-0.62,0.97-1.06c0.32-0.65,0.98-1.85,0.14-2.38
					c-0.43-0.27-1.02-0.27-1.48-0.07c-0.45,0.2-0.79,0.59-1.08,0.97c-0.15,0.2-0.29,0.41-0.44,0.61c-0.05,0.07-0.14,0.22-0.18,0.25
					c0.02-0.01-0.02,0.01-0.03,0.02c-0.04,0.02-0.08,0.04-0.12,0.07c-0.08,0.04-0.15,0.09-0.23,0.13c-0.08,0.03-0.15,0.03-0.24,0.06
					c-0.17,0.05-0.36,0.13-0.46,0.29c-0.23,0.37,0.2,0.73,0.47,0.91C216.64,68.41,217.08,68.61,217.5,68.63
					c0.25,0.01,0.25-0.38,0-0.39c-0.3-0.01-0.61-0.16-0.87-0.31c-0.13-0.08-0.27-0.16-0.37-0.27c-0.04-0.04-0.07-0.07-0.09-0.12
					c-0.02-0.03-0.01-0.02-0.02-0.05c0-0.01,0,0,0-0.01c0,0,0.02-0.03,0.06-0.06c0.07-0.05,0.16-0.07,0.24-0.09
					c0.16-0.04,0.28-0.09,0.43-0.17c0.12-0.06,0.25-0.11,0.33-0.22c0.13-0.16,0.25-0.33,0.36-0.5c0.47-0.67,1.07-1.5,2-1.29
					c0.35,0.08,0.57,0.27,0.53,0.65c-0.04,0.38-0.22,0.74-0.38,1.09c-0.19,0.42-0.41,0.85-0.83,1.1c-0.42,0.25-0.92,0.27-1.4,0.26
					C217.25,68.24,217.25,68.63,217.5,68.63z"/>
			</g>
		</g>
		<g>
			
				<linearGradient id="SVGID_00000058549808693759535040000009155575815311592876_" gradientUnits="userSpaceOnUse" x1="604.0734" y1="-224.1761" x2="612.944" y2="-224.1761" gradientTransform="matrix(0.9568 -0.2906 0.2906 0.9568 -292.9965 480.214)">
				<stop  offset="0" style="stop-color:#C3E2F4"/>
				<stop  offset="1" style="stop-color:#FFFFFF"/>
			</linearGradient>
			<path style="fill:url(#SVGID_00000058549808693759535040000009155575815311592876_);" d="M226.83,87.43
				c-1.22,0.01-2.44,0.41-3.63,0.77l-0.49,0.15c-0.66,0.16-2.98,1.09-2.82,1.95c0.2,1.05,2.35-0.42,3.01-0.61
				c1.19-0.36,2.39-0.6,3.61-0.87c0.48-0.1,1.66,0.01,1.9-0.58C228.71,87.5,227.37,87.43,226.83,87.43z"/>
			<g>
				<path class="st4" d="M226.83,87.24c-1.16,0.03-2.27,0.35-3.37,0.68c-0.46,0.14-0.93,0.26-1.38,0.43
					c-0.7,0.26-2.76,1.04-2.34,2.12c0.4,1.03,2.24-0.15,2.8-0.42c0.85-0.41,1.84-0.57,2.76-0.77c0.47-0.1,0.94-0.24,1.42-0.3
					c0.33-0.04,0.65-0.04,0.98-0.1c0.49-0.09,1.24-0.54,0.86-1.14C228.25,87.23,227.35,87.24,226.83,87.24c-0.25,0-0.25,0.39,0,0.39
					c0.34,0,1.18-0.05,1.39,0.29c0.35,0.57-1.06,0.63-1.33,0.65c-0.7,0.06-1.4,0.26-2.08,0.41c-0.72,0.16-1.49,0.3-2.18,0.59
					c-0.43,0.18-0.83,0.41-1.25,0.6c-0.25,0.11-1.03,0.51-1.26,0.19c-0.48-0.69,1.89-1.6,2.29-1.73c1.41-0.48,2.92-0.98,4.42-1.02
					C227.08,87.62,227.08,87.23,226.83,87.24z"/>
			</g>
		</g>
		<g>
			
				<linearGradient id="SVGID_00000133523798317111036600000014584471204530379452_" gradientUnits="userSpaceOnUse" x1="629.1021" y1="-239.8586" x2="632.7126" y2="-239.8586" gradientTransform="matrix(0.9568 -0.2906 0.2906 0.9568 -292.9965 480.214)">
				<stop  offset="0" style="stop-color:#C3E2F4"/>
				<stop  offset="1" style="stop-color:#FFFFFF"/>
			</linearGradient>
			<path style="fill:url(#SVGID_00000133523798317111036600000014584471204530379452_);" d="M242.28,66.28l-0.45-0.08
				c-0.72,0.17-3.64,2.16-1.98,2.31C240.47,68.58,243.6,66.6,242.28,66.28z"/>
			<g>
				<path class="st4" d="M242.34,66.09c-0.14-0.02-0.29-0.05-0.43-0.07c-0.14-0.02-0.26,0.03-0.38,0.09
					c-0.3,0.13-0.59,0.3-0.87,0.48c-0.33,0.21-0.65,0.45-0.93,0.71c-0.22,0.2-0.45,0.43-0.55,0.72c-0.1,0.29,0.06,0.53,0.34,0.63
					c0.26,0.1,0.51,0.07,0.77-0.03c0.67-0.25,1.31-0.66,1.86-1.12c0.24-0.21,0.53-0.46,0.62-0.78
					C242.87,66.4,242.64,66.17,242.34,66.09c-0.24-0.06-0.35,0.31-0.1,0.38c0.03,0.01,0.05,0.02,0.08,0.02
					c0.05,0.01-0.01-0.01,0.03,0.01c0.02,0.01,0.04,0.02,0.05,0.03c-0.04-0.03-0.01-0.01,0,0c0.02,0.02,0.03,0.01,0-0.01
					c0,0,0.05,0.08,0.01,0.01c0.01,0.01,0.01,0.03,0.01,0.05c0-0.08,0,0,0,0.01c-0.01,0.04,0.01-0.04,0-0.01
					c0,0.01-0.01,0.03-0.01,0.04c0,0.01-0.03,0.07-0.01,0.02c-0.01,0.02-0.02,0.04-0.03,0.06c-0.03,0.05-0.06,0.09-0.09,0.13
					c-0.02,0.03,0.03-0.04-0.01,0.01c-0.01,0.01-0.02,0.02-0.03,0.03c-0.02,0.02-0.04,0.04-0.05,0.06c-0.05,0.05-0.1,0.1-0.15,0.15
					c-0.44,0.41-0.98,0.75-1.53,1.02c-0.2,0.1-0.37,0.18-0.61,0.22c-0.03,0,0.05,0,0.01,0c-0.01,0-0.02,0-0.02,0
					c-0.01,0-0.03,0-0.04,0c-0.05,0-0.11-0.01-0.17-0.03c-0.03-0.01-0.05-0.02-0.08-0.03c0.05,0.02-0.02-0.01-0.03-0.02
					c-0.04-0.02,0.01,0.02-0.02-0.01c-0.04-0.05,0.01,0.02-0.02-0.02c-0.01-0.01,0.01,0.04,0-0.01c-0.01-0.05,0.02,0.03,0-0.01
					c0,0,0-0.02,0-0.02c0.01-0.04-0.01,0.05,0,0.01c0.01-0.02,0.01-0.04,0.02-0.06c0.01-0.04-0.02,0.02,0.01-0.03
					c0.01-0.02,0.02-0.04,0.04-0.06c0.01-0.02,0.03-0.04,0.04-0.07c0.01-0.01,0.02-0.02,0.02-0.03c0.03-0.04-0.01,0.02,0.01-0.02
					c0.19-0.23,0.42-0.43,0.65-0.61c0.27-0.21,0.57-0.41,0.87-0.59c0.13-0.08,0.26-0.15,0.4-0.21c0.03-0.01,0.06-0.03,0.09-0.04
					c0.05-0.02-0.04,0.01,0.01,0c0.01-0.01,0.03-0.01,0.04-0.02c0.05-0.02,0.09-0.03,0.14-0.04c-0.03,0-0.07,0-0.1,0
					c0.15,0.03,0.3,0.05,0.45,0.08c0.1,0.02,0.21-0.03,0.24-0.14C242.5,66.24,242.44,66.11,242.34,66.09z"/>
			</g>
		</g>
		<g>
			
				<linearGradient id="SVGID_00000173846853651404813520000006003146504261404078_" gradientUnits="userSpaceOnUse" x1="587.56" y1="-238.1049" x2="605.6907" y2="-238.1049" gradientTransform="matrix(0.9568 -0.2906 0.2906 0.9568 -292.9965 480.214)">
				<stop  offset="0" style="stop-color:#C3E2F4"/>
				<stop  offset="1" style="stop-color:#FFFFFF"/>
			</linearGradient>
			<path style="fill:url(#SVGID_00000173846853651404813520000006003146504261404078_);" d="M214.01,77.4
				c-0.72-0.38-0.68-0.55-1.54-0.5c-0.69,0.04-0.74,0.32-1.24-0.05c-0.45-0.34-0.12-0.74-0.91-0.91c-0.48-0.1-1.06,0.29-1.55,0.14
				c-0.52-0.15-0.8-0.86-1.37-0.97c-0.41-0.09-1.12,0.13-1.58,0.16c-1.16,0.08-1.87,0.16-2.83,0.86l-0.74,0.76
				c-0.26,1.8-3.05-0.01-2.99,2.16c0.01,0.21,0.14,0.69,0.31,1.1c0.13,0.32,0.29,0.6,0.44,0.68c0.78,0.46,1.29-0.41,1.78-0.86
				c0.65-0.6,1.39-0.85,2.07-1.48c0.49-0.45,1.11-1.43,1.8-1.58c0.95-0.21,1.34,0.84,1.96,1.14c0.36,0.17,0.72-0.06,1.15,0.34
				c0.45,0.42,0.12,0.74,0.37,1.1c0.59,0.83,1.81-0.22,1.99,0.88c0.17,1.05-1.15,1.25-1.36,2.01c-0.52,1.87,3.08-0.06,3.81-0.23
				c1.81-0.42,3.3-1.1,4.01-2.84c0.04-0.1,0.08-0.2,0.11-0.29C218.62,76.46,215.48,78.18,214.01,77.4z"/>
			<g>
				<path class="st4" d="M214.11,77.23c-0.36-0.2-0.67-0.44-1.08-0.51c-0.55-0.09-1.05,0.21-1.53-0.05
					c-0.37-0.2-0.39-0.54-0.74-0.76c-0.4-0.25-0.83-0.13-1.25-0.05c-0.85,0.16-1-0.3-1.62-0.72c-0.35-0.24-0.71-0.24-1.13-0.19
					c-1.07,0.14-2.26,0.15-3.24,0.65c-0.52,0.26-1.15,0.74-1.45,1.26c-0.16,0.28-0.09,0.46-0.45,0.65c-0.18,0.09-0.4,0.11-0.61,0.13
					c-0.33,0.03-0.67,0.02-1,0.1c-0.54,0.13-0.86,0.48-0.93,1.04c-0.09,0.72,0.29,2.1,1.06,2.35c0.87,0.29,1.45-0.72,2.02-1.18
					c0.55-0.43,1.18-0.73,1.71-1.19c0.52-0.44,0.89-1.14,1.48-1.48c0.83-0.47,1.27,0.26,1.83,0.73c0.29,0.24,0.54,0.22,0.87,0.34
					c1.05,0.36,0.58,1.6,1.79,1.7c0.14,0.01,0.47-0.08,0.61-0.02c0.65,0.31,0.46,0.87,0.07,1.27c-0.28,0.29-0.67,0.47-0.86,0.84
					c-0.2,0.39-0.22,0.92,0.19,1.16c0.48,0.28,1.26-0.02,1.73-0.17c0.67-0.22,1.3-0.55,1.97-0.76c1.09-0.34,2.15-0.58,3.04-1.34
					c0.73-0.62,1.54-1.81,1.45-2.82c-0.06-0.58-0.49-0.8-1.03-0.84C216.08,77.27,215.03,77.66,214.11,77.23
					c-0.23-0.1-0.42,0.23-0.2,0.34c0.55,0.26,1.14,0.26,1.74,0.23c0.53-0.03,1.85-0.34,2.03,0.36c0.26,1-0.91,2.32-1.65,2.83
					c-0.82,0.56-1.75,0.73-2.67,1.03c-0.57,0.19-1.1,0.46-1.67,0.65c-0.55,0.19-2.52,0.65-1.49-0.59c0.37-0.45,0.98-0.65,1.13-1.27
					c0.13-0.53-0.09-1.07-0.64-1.18c-0.24-0.05-0.49,0.05-0.73,0.01c-0.68-0.13-0.58-0.68-0.84-1.15c-0.17-0.32-0.46-0.41-0.77-0.53
					c-0.43-0.17-0.25,0.19-0.87-0.25c-0.21-0.15-0.37-0.38-0.56-0.56c-1.55-1.38-2.77,0.98-3.92,1.75
					c-0.36,0.24-0.74,0.44-1.08,0.71c-0.36,0.29-0.84,1.05-1.31,1.13c-0.77,0.12-1.21-1.33-1.14-1.91c0.08-0.66,0.54-0.76,1.1-0.81
					c0.44-0.04,0.95-0.01,1.35-0.25c0.44-0.27,0.55-0.82,0.91-1.19c0.9-0.92,2-0.98,3.21-1.14c0.8-0.1,1.24-0.3,1.94,0.28
					c0.26,0.22,0.45,0.48,0.81,0.56c0.71,0.16,1.33-0.51,1.99,0.23c0.21,0.23,0.23,0.48,0.56,0.63c0.28,0.13,0.45,0.06,0.74,0.02
					c0.79-0.12,1.18,0.03,1.85,0.4C214.13,77.69,214.32,77.35,214.11,77.23z"/>
			</g>
		</g>
	</g>
	<g>
		<g>
			
				<linearGradient id="SVGID_00000019672681721893195500000002825499984415692427_" gradientUnits="userSpaceOnUse" x1="785.7052" y1="-167.5493" x2="797.8348" y2="-167.5493" gradientTransform="matrix(0.9568 -0.2906 0.2906 0.9568 -292.9965 480.214)">
				<stop  offset="0" style="stop-color:#C3E2F4"/>
				<stop  offset="1" style="stop-color:#FFFFFF"/>
			</linearGradient>
			<path style="fill:url(#SVGID_00000019672681721893195500000002825499984415692427_);" d="M420.52,88.06
				c0.26-0.61,0.09-1.22,0.08-1.82c-0.01-0.59,0.23-1.47-0.08-2.01l-0.55-0.05c-0.87,0.92-1.27,1.11-2.38,1.68
				c-0.89,0.46-1.68,1.55-2.34,2.31c-0.78,0.91-0.42,2.15-1.22,2.98c-0.35,0.37-1.11,0.31-1.5,0.61c-0.56,0.43-0.66,0.96-0.8,1.61
				c-0.02,0.1-0.57,1.71-0.59,1.64c0.17,0.91,1.06,0.1,1.43-0.14c0.86-0.55,1.52-1.05,2.42-1.5c0.57-0.29,1.91-1.92,2.41-1.68
				c0.67,0.32-0.18,0.94,0.84,1.02c0.57,0.04,0.98-0.35,1.15-0.8c0.22-0.6-0.17-1.36,0.07-2.06
				C419.72,89.16,420.23,88.72,420.52,88.06z"/>
			<g>
				<path class="st4" d="M420.71,88.11c0.26-0.72,0.05-1.42,0.1-2.16c0.04-0.62,0.16-1.23-0.11-1.82c-0.03-0.06-0.1-0.09-0.17-0.1
					c-0.16-0.01-0.4-0.08-0.55-0.05c-0.24,0.05-0.44,0.37-0.61,0.53c-0.56,0.51-1.21,0.82-1.86,1.18c-0.7,0.39-1.24,0.99-1.75,1.59
					c-0.49,0.58-0.96,1.08-1.16,1.83c-0.22,0.82-0.22,1.86-1.19,2.15c-0.66,0.2-1.17,0.33-1.52,1c-0.23,0.45-0.29,0.98-0.45,1.46
					c-0.08,0.23-0.16,0.46-0.24,0.69c-0.04,0.11-0.11,0.23-0.13,0.34c-0.03,0.22-0.15,0.07,0.09,0.07c-0.13,0-0.22,0.12-0.19,0.25
					c0.12,0.48,0.46,0.67,0.93,0.48c0.62-0.25,1.2-0.77,1.75-1.13c0.63-0.41,1.34-0.72,1.92-1.21c0.46-0.39,0.88-0.88,1.4-1.2
					c0.32-0.19,0.51-0.15,0.55,0.25c0.02,0.15,0.01,0.28,0.11,0.4c0.34,0.44,1.15,0.26,1.51-0.04c0.54-0.44,0.56-1.06,0.5-1.7
					c-0.06-0.61,0-1.07,0.33-1.6c0.24-0.39,0.53-0.75,0.72-1.17c0.11-0.23-0.23-0.42-0.34-0.2c-0.31,0.67-0.89,1.21-1.08,1.93
					c-0.2,0.76,0.32,1.7-0.27,2.34c-0.21,0.22-0.92,0.52-1.09,0.1c-0.06-0.14,0.01-0.32-0.05-0.47c-0.13-0.29-0.43-0.43-0.73-0.36
					c-0.86,0.21-1.43,1.22-2.16,1.67c-0.66,0.41-1.33,0.78-1.98,1.21c-0.27,0.18-0.54,0.36-0.8,0.54c-0.26,0.18-0.71,0.52-0.84,0.03
					c-0.06,0.08-0.12,0.16-0.19,0.25c0.23,0,0.3-0.4,0.36-0.56c0.14-0.39,0.29-0.77,0.4-1.17c0.2-0.7,0.29-1.46,1.09-1.72
					c0.56-0.18,1.05-0.23,1.4-0.76c0.35-0.54,0.39-1.19,0.55-1.79c0.21-0.78,0.82-1.39,1.34-1.98c0.55-0.62,1.12-1.06,1.85-1.44
					c0.51-0.27,1-0.57,1.43-0.96c0.13-0.12,0.26-0.29,0.4-0.39c0.08-0.05-0.05-0.03,0.08-0.07c0.05-0.01,0.14,0.01,0.19,0.02
					c0.04,0,0.11,0,0.15,0.01c0.14,0.08,0-0.05,0.08,0.08c0.06,0.1,0.01,0.57,0.01,0.73c-0.02,0.4-0.08,0.8-0.06,1.2
					c0.03,0.55,0.11,1.06-0.08,1.59C420.25,88.24,420.62,88.34,420.71,88.11z"/>
			</g>
		</g>
		<g>
			
				<linearGradient id="SVGID_00000119798855771044856830000015742710350095596686_" gradientUnits="userSpaceOnUse" x1="796.3865" y1="-167.3238" x2="802.5388" y2="-167.3238" gradientTransform="matrix(0.9568 -0.2906 0.2906 0.9568 -292.9965 480.214)">
				<stop  offset="0" style="stop-color:#C3E2F4"/>
				<stop  offset="1" style="stop-color:#FFFFFF"/>
			</linearGradient>
			<path style="fill:url(#SVGID_00000119798855771044856830000015742710350095596686_);" d="M425.06,83.6
				c0.34,1.51-1.98,2.54-2.12,4c-0.1,1.03-0.35,1.08-0.89,1.98c-0.43,0.73-0.32,1.64-0.66,2.38c1.04-0.16,2.91-2.96,3.08-3.99
				c0.06-0.39-0.21-0.83-0.15-1.15c0.11-0.51,0.38-0.56,0.65-0.98c0.46-0.7,0.67-1.16,0.38-2.01L425.06,83.6z"/>
			<g>
				<path class="st4" d="M424.87,83.65c0.14,0.76-0.43,1.38-0.9,1.91c-0.43,0.49-0.92,0.98-1.13,1.61c-0.12,0.35-0.1,0.72-0.21,1.07
					c-0.11,0.34-0.34,0.62-0.53,0.91c-0.26,0.39-0.44,0.78-0.54,1.25c-0.1,0.5-0.14,1.01-0.34,1.48c-0.07,0.16,0.04,0.32,0.22,0.29
					c0.72-0.14,1.31-0.89,1.74-1.43c0.53-0.68,1.03-1.43,1.34-2.24c0.16-0.41,0.17-0.73,0.06-1.16c-0.09-0.36-0.08-0.63,0.17-0.92
					c0.16-0.19,0.32-0.36,0.46-0.57c0.26-0.41,0.49-0.86,0.46-1.36c-0.01-0.22-0.04-0.55-0.16-0.73c-0.07-0.11-0.22-0.19-0.32-0.27
					c-0.19-0.16-0.47,0.12-0.27,0.28c0.09,0.08,0.22,0.15,0.28,0.25c0.12,0.23,0.11,0.61,0.05,0.86c-0.11,0.49-0.45,0.91-0.78,1.28
					c-0.26,0.29-0.4,0.62-0.34,1.01c0.07,0.45,0.19,0.77,0.02,1.21c-0.29,0.76-0.76,1.47-1.25,2.1c-0.38,0.49-0.92,1.21-1.56,1.33
					c0.07,0.1,0.15,0.19,0.22,0.29c0.2-0.46,0.26-0.95,0.35-1.44c0.1-0.52,0.29-0.94,0.59-1.38c0.2-0.29,0.4-0.57,0.51-0.91
					c0.12-0.38,0.09-0.8,0.25-1.17c0.54-1.25,2.28-2.07,1.99-3.62C425.2,83.3,424.82,83.41,424.87,83.65z"/>
			</g>
		</g>
		<g>
			
				<linearGradient id="SVGID_00000082339414217449193330000010603443899453526437_" gradientUnits="userSpaceOnUse" x1="786.422" y1="-177.4242" x2="796.772" y2="-177.4242" gradientTransform="matrix(0.9568 -0.2906 0.2906 0.9568 -292.9965 480.214)">
				<stop  offset="0" style="stop-color:#C3E2F4"/>
				<stop  offset="1" style="stop-color:#FFFFFF"/>
			</linearGradient>
			<path style="fill:url(#SVGID_00000082339414217449193330000010603443899453526437_);" d="M411.54,88.06
				c0.63-0.31,0.77-0.13,1.31-0.22c1.31-0.23,0.95-0.94,1.58-1.85c0.28-0.41,0.74-0.69,1.05-1.12c0.45-0.62,0.57-1.23,0.9-1.89
				c0.53-1.09,1.3-1.66,0.69-2.93c-1.45,0.82-0.9-1.03-0.99-1.53c-0.13-0.72-0.76-1.05-0.73-1.91c0.02-0.79,0.61-1.54,0.54-2.3
				c-0.03-0.32-0.34-0.5-0.37-0.82c-0.03-0.43,0.22-0.84,0.26-1.28l-0.26-0.14c-0.7,0.27-0.61,1.28-0.9,1.9
				c-0.35,0.76-0.64,0.68-1.31,1.15c-0.87,0.6-2.28,2.43-1.59,3.42c0.53,0.76,1.23,0.19,1.87,0.66c0.83,0.61,0.17,1.41-0.19,2.08
				c-0.67,1.24-0.81,2.37-1.47,3.49c-0.39,0.66-0.49,1.43-0.9,2.12c-0.32,0.53-1.23,1.08-1.09,1.75
				C410.62,88.79,410.99,88.33,411.54,88.06z"/>
			<g>
				<path class="st4" d="M411.64,88.23c0.74-0.32,1.73,0,2.29-0.74c0.17-0.23,0.24-0.51,0.34-0.77c0.25-0.6,0.65-0.96,1.09-1.42
					c0.76-0.8,0.99-1.94,1.54-2.87c0.5-0.84,0.75-1.49,0.35-2.44c-0.05-0.12-0.16-0.18-0.29-0.12c-0.92,0.47-0.7-0.47-0.69-1.03
					c0.01-0.52-0.21-0.87-0.45-1.33c-0.6-1.09,0.16-1.83,0.25-2.91c0.02-0.26-0.03-0.42-0.11-0.66c-0.22-0.66-0.11-1.05,0-1.7
					c0.01-0.08-0.01-0.18-0.09-0.22c-0.48-0.25-0.78-0.04-1.02,0.45c-0.17,0.34-0.19,0.73-0.3,1.09c-0.18,0.6-0.47,0.85-0.98,1.14
					c-1.06,0.62-2.65,2.27-2.15,3.64c0.1,0.27,0.29,0.52,0.54,0.66c0.38,0.21,0.81,0.03,1.19,0.19c0.22,0.24,0.43,0.48,0.65,0.71
					c-0.04,0.25-0.12,0.47-0.24,0.68c-0.1,0.2-0.22,0.38-0.33,0.57c-0.29,0.54-0.51,1.12-0.71,1.7c-0.25,0.71-0.57,1.36-0.89,2.04
					c-0.25,0.52-0.36,1.09-0.62,1.6c-0.37,0.72-1.33,1.21-1.26,2.11c0.01,0.08,0.06,0.17,0.14,0.19
					C410.62,88.92,411.03,88.56,411.64,88.23c0.22-0.12,0.02-0.46-0.2-0.34c-0.22,0.12-0.51,0.38-0.75,0.44
					c-0.81,0.21-0.37-0.36-0.09-0.68c0.37-0.42,0.65-0.74,0.88-1.26c0.54-1.28,1.09-2.55,1.57-3.85c0.26-0.7,0.65-1.3,0.96-1.97
					c0.16-0.35,0.27-0.74,0.1-1.11c-0.48-1.07-2.28-0.31-2.37-1.6c-0.08-1.16,1.22-2.35,2.11-2.88c0.79-0.47,0.99-1.02,1.21-1.89
					c0.06-0.24,0.14-0.67,0.37-0.79c0.26-0.13,0.1,0.16,0.04,0.34c-0.18,0.5-0.15,0.79,0.01,1.25c0.32,0.93-0.08,1.36-0.27,2.25
					c-0.09,0.42-0.08,0.81,0.09,1.2c0.23,0.55,0.59,0.92,0.58,1.54c0,0.33-0.08,0.66,0,0.98c0.16,0.7,0.75,0.6,1.28,0.33
					c-0.1-0.04-0.19-0.08-0.29-0.12c0.48,1.14-0.2,1.82-0.67,2.78c-0.23,0.47-0.37,0.97-0.61,1.43c-0.27,0.52-0.68,0.84-1.07,1.26
					c-0.47,0.5-0.52,1.15-0.9,1.67c-0.46,0.61-1.52,0.38-2.18,0.66C411.22,87.99,411.41,88.33,411.64,88.23z"/>
			</g>
		</g>
		<g>
			
				<linearGradient id="SVGID_00000060716382671178432120000005551176853416571799_" gradientUnits="userSpaceOnUse" x1="801.4664" y1="-185.4759" x2="805.9137" y2="-185.4759" gradientTransform="matrix(0.9568 -0.2906 0.2906 0.9568 -292.9965 480.214)">
				<stop  offset="0" style="stop-color:#C3E2F4"/>
				<stop  offset="1" style="stop-color:#FFFFFF"/>
			</linearGradient>
			<path style="fill:url(#SVGID_00000060716382671178432120000005551176853416571799_);" d="M421.33,71.79
				c1.13-0.17,1.01-1.96,1.45-2.69c0.2-0.33,1.73-3.07,0.27-2.65l-0.17,0.16c-0.82,0.91-0.79,1.81-1.19,2.84
				C421.5,69.95,419.34,72.09,421.33,71.79z"/>
			<g>
				<path class="st4" d="M421.38,71.98c1.2-0.21,1.11-1.75,1.48-2.62c0.13-0.31,0.33-0.6,0.48-0.9c0.2-0.42,0.41-0.86,0.49-1.32
					c0.06-0.33,0.06-0.77-0.32-0.89c-0.53-0.17-0.89,0.32-1.14,0.71c-0.44,0.7-0.54,1.52-0.82,2.28c-0.12,0.35-0.43,0.68-0.66,1.01
					c-0.25,0.34-0.62,0.8-0.61,1.25C420.31,72.06,420.98,72.04,421.38,71.98c0.25-0.03,0.14-0.41-0.1-0.38
					c-0.25,0.04-0.67,0.1-0.57-0.26c0.1-0.35,0.36-0.67,0.57-0.96c0.19-0.26,0.41-0.51,0.56-0.79c0.28-0.56,0.35-1.23,0.57-1.81
					c0.13-0.34,0.31-0.67,0.55-0.95c0.05-0.06,0.13-0.15,0.2-0.2c0.07-0.05-0.08,0.01,0.04,0c0.05-0.01,0.1-0.02,0.15-0.01
					c0.24,0.05,0.12,0.43,0.08,0.6c-0.17,0.66-0.52,1.25-0.83,1.84c-0.24,0.45-0.3,0.97-0.43,1.45c-0.13,0.48-0.33,1.01-0.88,1.11
					C421.03,71.65,421.14,72.02,421.38,71.98z"/>
			</g>
		</g>
		<g>
			
				<linearGradient id="SVGID_00000056393001551929997620000006571660776719083909_" gradientUnits="userSpaceOnUse" x1="802.4893" y1="-179.2954" x2="805.5344" y2="-179.2954" gradientTransform="matrix(0.9568 -0.2906 0.2906 0.9568 -292.9965 480.214)">
				<stop  offset="0" style="stop-color:#C3E2F4"/>
				<stop  offset="1" style="stop-color:#FFFFFF"/>
			</linearGradient>
			<path style="fill:url(#SVGID_00000056393001551929997620000006571660776719083909_);" d="M424.47,71.8l-0.09-0.29
				c-1.55,1.03-0.25,2.12-0.16,3.34c0.08,1.14-1.12,2.51-0.5,3.7c1.62-0.81,0.59-2.29,0.99-3.53c0.3-0.91,0.98-0.81,0.53-1.77
				C424.96,72.66,424.15,72.75,424.47,71.8z"/>
			<g>
				<path class="st4" d="M424.65,71.75c-0.03-0.1-0.06-0.2-0.09-0.29c-0.03-0.11-0.18-0.19-0.29-0.12c-0.52,0.36-0.91,0.84-0.84,1.5
					c0.06,0.61,0.4,1.14,0.54,1.73c0.17,0.73-0.19,1.43-0.42,2.11c-0.22,0.66-0.32,1.32-0.01,1.97c0.05,0.1,0.18,0.12,0.27,0.07
					c0.66-0.35,1.03-0.9,1.05-1.65c0.02-0.72-0.21-1.48,0.1-2.16c0.13-0.29,0.37-0.48,0.52-0.75c0.15-0.27,0.1-0.57-0.01-0.85
					c-0.11-0.29-0.29-0.47-0.53-0.65c-0.31-0.24-0.41-0.4-0.29-0.8c0.07-0.24-0.3-0.34-0.38-0.1c-0.08,0.27-0.13,0.56,0.02,0.82
					c0.12,0.21,0.33,0.32,0.51,0.47c0.23,0.19,0.47,0.56,0.37,0.86c-0.09,0.26-0.36,0.46-0.5,0.7c-0.33,0.61-0.27,1.27-0.22,1.93
					c0.02,0.32,0.05,0.66-0.04,0.97c-0.12,0.42-0.42,0.67-0.79,0.87c0.09,0.02,0.18,0.05,0.27,0.07c-0.59-1.22,0.65-2.44,0.52-3.68
					c-0.06-0.52-0.3-0.99-0.46-1.48c-0.23-0.69-0.08-1.19,0.53-1.61c-0.1-0.04-0.19-0.08-0.29-0.12c0.03,0.1,0.06,0.2,0.09,0.29
					C424.35,72.09,424.73,71.99,424.65,71.75z"/>
			</g>
		</g>
		<g>
			
				<linearGradient id="SVGID_00000090267554228734144420000012465093181735403192_" gradientUnits="userSpaceOnUse" x1="781.2997" y1="-161.9719" x2="784.3686" y2="-161.9719" gradientTransform="matrix(0.9568 -0.2906 0.2906 0.9568 -292.9965 480.214)">
				<stop  offset="0" style="stop-color:#C3E2F4"/>
				<stop  offset="1" style="stop-color:#FFFFFF"/>
			</linearGradient>
			<path style="fill:url(#SVGID_00000090267554228734144420000012465093181735403192_);" d="M409.2,95.67
				c-0.31,0.79,0.13,1.5-0.29,2.22c-0.46,0.8-1.28,0.93-0.87,2.04c1.17,0,2.57-3.89,1.78-4.35L409.2,95.67z"/>
			<g>
				<path class="st4" d="M409.01,95.62c-0.17,0.47-0.11,0.94-0.1,1.43c0.01,0.47-0.17,0.83-0.49,1.17c-0.2,0.22-0.44,0.42-0.57,0.69
					c-0.17,0.35-0.12,0.72,0.01,1.08c0.03,0.08,0.1,0.14,0.19,0.14c0.38-0.01,0.69-0.27,0.92-0.54c0.32-0.38,0.56-0.82,0.76-1.27
					c0.2-0.47,0.37-0.96,0.46-1.47c0.07-0.36,0.13-0.8-0.03-1.15c-0.06-0.14-0.18-0.29-0.35-0.3c-0.2-0.01-0.41,0.05-0.61,0.08
					c-0.24,0.03-0.25,0.42,0,0.39c0.16-0.02,0.31-0.04,0.47-0.06c0.03,0,0.07,0,0.11-0.01c0.08-0.03-0.03-0.03-0.04-0.02
					c0.01,0,0.04,0.05,0.06,0.08c0.11,0.24,0.06,0.61,0.02,0.87c-0.15,0.85-0.49,1.73-1,2.43c-0.17,0.24-0.45,0.58-0.77,0.59
					c0.06,0.05,0.12,0.1,0.19,0.14c-0.12-0.33-0.16-0.64,0.05-0.94c0.18-0.25,0.43-0.44,0.62-0.68c0.26-0.33,0.39-0.7,0.4-1.11
					c0.01-0.49-0.09-0.95,0.09-1.43C409.48,95.48,409.1,95.38,409.01,95.62z"/>
			</g>
		</g>
	</g>
	<g>
		<g>
			
				<linearGradient id="SVGID_00000016762839095705458680000000248743059416259976_" gradientUnits="userSpaceOnUse" x1="510.034" y1="-164.2237" x2="526.4086" y2="-164.2237" gradientTransform="matrix(0.9568 -0.2906 0.2906 0.9568 -292.9965 480.214)">
				<stop  offset="0" style="stop-color:#C3E2F4"/>
				<stop  offset="1" style="stop-color:#FFFFFF"/>
			</linearGradient>
			<path style="fill:url(#SVGID_00000016762839095705458680000000248743059416259976_);" d="M164.42,177.99
				c-0.39-0.59-0.59-1.31-1.02-1.87c-1.1-1.44-3.14-2.52-4.63-3.52c-0.65-0.43-1.6-1.26-2.39-1.42c-0.84-0.17-1.39,0.64-2.18,0.57
				c-0.87-0.08-1.4-1.16-1.85-1.78c-0.64-0.89-1.23-1.52-2.13-2.15c-0.54-0.37-0.76-0.81-1.23-1.18c-0.4-0.31-1.13-0.45-1.61-0.65
				c-1.01-0.44-2.04-0.91-3.06-1.29c-0.35,1.13,2.58,2,3.11,2.78c0.39,0.55,0.39,1.12,0.93,1.6c0.65,0.57,1.08,0.6,1.39,1.5
				c0.24,0.69,0.14,1.35,0.58,1.98c0.49,0.71,1.12,0.79,1.8,1.17c0.94,0.52,1.14,0.77,2.29,0.57c0.81-0.14,1.25-0.26,1.98,0.2
				c-0.09,0.47-0.86,0.92-0.87,1.29c0,0.59,1.13,0.69,1.56,0.88c1.24,0.56,2.88,1.68,4.31,1.48c-0.74-0.46-2.63-0.76-2.74-1.94
				c-0.05-0.52,0.63-1.08,1.23-1.02c0.44,0.05,0.92,0.61,1.21,0.93c0.73,0.81,1.3,1.79,2.06,2.58c0.69,0.72,1.86,0.97,2.74,1.52
				l0.06-0.2C165.53,179.28,164.9,178.7,164.42,177.99z"/>
			<g>
				<path class="st4" d="M164.59,177.9c-0.58-0.98-0.94-1.92-1.79-2.71c-0.78-0.73-1.69-1.32-2.59-1.89
					c-0.89-0.56-1.73-1.2-2.62-1.76c-0.66-0.41-1.28-0.7-2.04-0.43c-0.69,0.24-1.15,0.71-1.92,0.18c-0.46-0.32-0.73-0.86-1.04-1.31
					c-0.56-0.8-1.21-1.5-1.98-2.11c-0.8-0.63-1.36-1.42-2.34-1.77c-1.32-0.47-2.58-1.08-3.89-1.58c-0.09-0.04-0.22,0.04-0.24,0.14
					c-0.12,0.65,0.33,1.07,0.82,1.42c0.42,0.3,0.88,0.54,1.32,0.8c0.71,0.41,1.01,0.73,1.38,1.49c0.22,0.45,0.43,0.73,0.81,1.05
					c0.69,0.57,1.07,0.97,1.27,1.9c0.3,1.37,0.79,1.83,2.02,2.44c1.02,0.5,1.57,0.88,2.73,0.74c0.29-0.04,1.04-0.29,1.31-0.07
					c0.48,0.4-0.09,0.67-0.25,0.93c-0.14,0.22-0.23,0.4-0.14,0.66c0.23,0.66,1.64,0.83,2.17,1.09c1.23,0.6,2.43,1.34,3.85,1.24
					c0.18-0.01,0.28-0.26,0.1-0.36c-0.58-0.33-1.24-0.48-1.82-0.81c-0.26-0.15-0.51-0.31-0.65-0.58c-0.38-0.74,0.34-1.53,1.39-0.9
					c0.38,0.23,0.74,0.79,1,1.11c0.59,0.75,1.1,1.65,1.85,2.26c0.74,0.61,1.72,0.86,2.54,1.33c0.11,0.06,0.25,0,0.29-0.12
					C166.33,179.54,164.97,178.42,164.59,177.9c-0.14-0.2-0.48-0.01-0.34,0.2c0.32,0.45,1.62,1.61,1.48,2.08
					c0.1-0.04,0.19-0.08,0.29-0.12c-0.73-0.42-1.58-0.66-2.27-1.14c-0.84-0.58-1.36-1.55-1.98-2.34c-0.56-0.71-1.35-1.9-2.42-1.5
					c-0.78,0.29-1.1,1.11-0.6,1.8c0.59,0.82,1.76,0.97,2.58,1.43c0.03-0.12,0.07-0.24,0.1-0.36c-1.61,0.12-2.82-0.91-4.24-1.46
					c-0.17-0.07-0.34-0.11-0.51-0.16c-0.44-0.15-0.7-0.07-0.7-0.59c0-0.46,0.46-0.75,0.63-1.19c0.03-0.08-0.02-0.18-0.09-0.22
					c-1.18-0.65-2.34,0.15-3.51-0.35c-0.57-0.24-1.18-0.58-1.72-0.89c-1.11-0.62-0.97-1.71-1.39-2.72c-0.14-0.34-0.32-0.6-0.6-0.84
					c-0.25-0.22-0.55-0.37-0.79-0.6c-0.33-0.33-0.47-0.74-0.67-1.14c-0.42-0.84-1.2-1.16-1.98-1.62c-0.24-0.14-1.39-0.76-1.23-1.06
					c0.11-0.21,2.27,0.88,2.66,1.04c0.7,0.28,1.37,0.43,1.94,0.97c0.58,0.56,1.21,1.03,1.79,1.58c0.9,0.84,1.39,2.15,2.38,2.89
					c1.03,0.77,1.5-0.12,2.53-0.21c1-0.1,1.89,0.78,2.65,1.31c0.61,0.42,1.25,0.8,1.87,1.21c0.77,0.5,1.55,1.03,2.21,1.67
					c0.76,0.74,1.08,1.64,1.61,2.52C164.38,178.31,164.72,178.11,164.59,177.9z"/>
			</g>
		</g>
		<g>
			
				<linearGradient id="SVGID_00000036238973431390884930000005347375481233270659_" gradientUnits="userSpaceOnUse" x1="501.785" y1="-180.2628" x2="505.8933" y2="-180.2628" gradientTransform="matrix(0.9568 -0.2906 0.2906 0.9568 -292.9965 480.214)">
				<stop  offset="0" style="stop-color:#C3E2F4"/>
				<stop  offset="1" style="stop-color:#FFFFFF"/>
			</linearGradient>
			<path style="fill:url(#SVGID_00000036238973431390884930000005347375481233270659_);" d="M134.03,159.21
				c-0.21,0.68,0.81,1.19,1.06,1.69c0.29,0.58-0.01,1.28,0.58,1.73c0.42,0.32,1.54,0.51,2.08,0.74c0.48,0.2,1.58,0.78,1.71,0.07
				l-0.06-0.36c-0.52-0.91-1.34-2.14-2.03-2.96C136.92,159.6,134.45,157.89,134.03,159.21z"/>
			<g>
				<path class="st4" d="M133.85,159.16c-0.16,0.62,0.37,1.06,0.76,1.46c0.24,0.24,0.38,0.46,0.42,0.8
					c0.04,0.32,0.03,0.64,0.17,0.94c0.27,0.6,1.01,0.76,1.59,0.92c0.3,0.09,0.61,0.16,0.89,0.28c0.24,0.1,0.48,0.22,0.73,0.3
					c0.41,0.14,1.11,0.24,1.22-0.34c0.03-0.15-0.02-0.37-0.07-0.51c-0.06-0.16-0.19-0.33-0.28-0.48c-0.11-0.18-0.22-0.35-0.33-0.52
					c-0.45-0.69-0.91-1.4-1.46-2.02c-0.27-0.3-0.62-0.55-0.96-0.76C135.84,158.77,134.26,157.94,133.85,159.16
					c-0.08,0.24,0.29,0.34,0.38,0.1c0.28-0.82,1.6-0.03,2.03,0.24c0.31,0.19,0.62,0.4,0.88,0.66c0.43,0.43,0.78,0.97,1.12,1.47
					c0.19,0.28,0.37,0.56,0.55,0.84c0.15,0.24,0.36,0.5,0.43,0.77c0.01,0.06,0.04,0.16,0.04,0.22c0,0.03,0.03-0.03-0.02,0.03
					c-0.03,0.03-0.04,0.06-0.09,0.08c-0.17,0.09-0.46-0.03-0.63-0.08c-0.45-0.16-0.87-0.37-1.34-0.5c-0.48-0.14-1.25-0.23-1.56-0.67
					c-0.19-0.26-0.17-0.62-0.2-0.92c-0.03-0.28-0.1-0.54-0.28-0.76c-0.29-0.37-1.07-0.82-0.92-1.37
					C134.29,159.02,133.91,158.91,133.85,159.16z"/>
			</g>
		</g>
		<g>
			
				<linearGradient id="SVGID_00000145037261514660292910000009065979462579208605_" gradientUnits="userSpaceOnUse" x1="495.0763" y1="-177.6972" x2="499.0948" y2="-177.6972" gradientTransform="matrix(0.9568 -0.2906 0.2906 0.9568 -292.9965 480.214)">
				<stop  offset="0" style="stop-color:#C3E2F4"/>
				<stop  offset="1" style="stop-color:#FFFFFF"/>
			</linearGradient>
			<path style="fill:url(#SVGID_00000145037261514660292910000009065979462579208605_);" d="M130.58,164.93
				c-0.32-0.32-0.52-0.98-1-1.03c-0.45-0.05-1,0.5-0.95,0.94c0.06,0.58,1.72,1.62,2.26,1.8c0.63,0.21,2.27,1.18,2.62,0.46
				l-0.26-0.42C132.74,165.72,131.3,165.67,130.58,164.93z"/>
			<g>
				<path class="st4" d="M130.71,164.79c-0.32-0.35-0.49-0.93-1-1.07c-0.51-0.14-1.05,0.29-1.22,0.75
					c-0.16,0.41,0.04,0.74,0.33,1.03c0.34,0.35,0.74,0.63,1.15,0.88c0.33,0.2,0.66,0.35,1.01,0.49c0.44,0.17,0.85,0.39,1.3,0.54
					c0.35,0.12,0.82,0.24,1.17,0.03c0.15-0.09,0.31-0.27,0.23-0.45c-0.06-0.13-0.16-0.25-0.24-0.38c-0.29-0.47-0.68-0.76-1.18-0.99
					C131.73,165.38,131.14,165.21,130.71,164.79c-0.18-0.18-0.45,0.1-0.27,0.28c0.5,0.5,1.2,0.68,1.82,1
					c0.3,0.15,0.59,0.35,0.77,0.64c0.1,0.16,0.2,0.33,0.31,0.49c0-0.07,0-0.13,0-0.2c-0.2,0.39-0.94,0.05-1.23-0.06
					c-0.43-0.17-0.87-0.35-1.29-0.54c-0.48-0.21-0.93-0.51-1.34-0.83c-0.19-0.15-0.39-0.32-0.54-0.52
					c-0.16-0.21-0.15-0.41,0.01-0.63c0.21-0.28,0.59-0.47,0.87-0.19c0.25,0.24,0.38,0.58,0.61,0.83
					C130.61,165.25,130.88,164.97,130.71,164.79z"/>
			</g>
		</g>
		<g>
			
				<linearGradient id="SVGID_00000019647787914342048660000015301186502346639551_" gradientUnits="userSpaceOnUse" x1="511.8418" y1="-162.1998" x2="517.0814" y2="-162.1998" gradientTransform="matrix(0.9568 -0.2906 0.2906 0.9568 -292.9965 480.214)">
				<stop  offset="0" style="stop-color:#C3E2F4"/>
				<stop  offset="1" style="stop-color:#FFFFFF"/>
			</linearGradient>
			<path style="fill:url(#SVGID_00000019647787914342048660000015301186502346639551_);" d="M154.52,176.32l0.03-0.38
				c-1.84-0.36-3.51-2.5-5.52-1.62c0.27,0.4,1.01,0.66,1.4,0.96c0.5,0.39,0.84,0.58,1.45,0.83c1.16,0.47,2.13,0.95,3.34,0.55
				C155.02,176.52,154.77,176.38,154.52,176.32z"/>
			<g>
				<path class="st4" d="M154.71,176.32c0.01-0.13,0.02-0.25,0.03-0.38c0.01-0.08-0.06-0.17-0.14-0.19c-1.91-0.4-3.53-2.5-5.62-1.62
					c-0.1,0.04-0.2,0.17-0.12,0.29c0.31,0.41,0.79,0.61,1.21,0.87c0.48,0.29,0.9,0.64,1.42,0.88c1.19,0.53,2.46,1.09,3.77,0.69
					c0.17-0.05,0.18-0.26,0.05-0.36c-0.22-0.17-0.47-0.3-0.74-0.37c-0.24-0.06-0.35,0.31-0.1,0.38c0.24,0.06,0.45,0.18,0.65,0.33
					c0.02-0.12,0.03-0.24,0.05-0.36c-1.22,0.38-2.46-0.18-3.56-0.69c-0.44-0.2-0.8-0.49-1.2-0.75c-0.39-0.26-0.92-0.42-1.21-0.81
					c-0.04,0.1-0.08,0.19-0.12,0.29c1.97-0.83,3.6,1.24,5.42,1.62c-0.05-0.06-0.1-0.12-0.14-0.19c-0.01,0.13-0.02,0.25-0.03,0.38
					C154.31,176.57,154.7,176.57,154.71,176.32z"/>
			</g>
		</g>
	</g>
	<g>
		<g>
			
				<linearGradient id="SVGID_00000005256328551620402790000004640268036104683421_" gradientUnits="userSpaceOnUse" x1="482.7399" y1="-113.6085" x2="486.554" y2="-113.6085" gradientTransform="matrix(0.9568 -0.2906 0.2906 0.9568 -292.9965 480.214)">
				<stop  offset="0" style="stop-color:#C3E2F4"/>
				<stop  offset="1" style="stop-color:#FFFFFF"/>
			</linearGradient>
			<path style="fill:url(#SVGID_00000005256328551620402790000004640268036104683421_);" d="M138.62,230.19
				c-0.5-0.35-1.3-0.28-1.85-0.43c-0.31-0.08-0.74-0.34-1.05-0.21c-0.59,0.26-0.01,0.56,0.28,0.75c0.62,0.4,0.97,1.21,1.76,1.33
				c0.41,0.06,2.1,0.34,2.23-0.06l-0.04-0.15C139.22,231.22,139.15,230.55,138.62,230.19z"/>
			<g>
				<path class="st4" d="M138.72,230.02c-0.42-0.28-0.93-0.31-1.42-0.37c-0.22-0.03-0.44-0.06-0.65-0.13
					c-0.23-0.08-0.46-0.19-0.72-0.2c-0.35-0.01-0.84,0.31-0.6,0.7c0.09,0.15,0.26,0.25,0.4,0.35c0.18,0.12,0.35,0.24,0.51,0.39
					c0.31,0.31,0.59,0.68,0.98,0.89c0.29,0.16,0.6,0.19,0.92,0.23c0.36,0.05,0.72,0.09,1.08,0.09c0.26,0,0.62,0,0.82-0.19
					c0.12-0.11,0.13-0.23,0.08-0.38c-0.07-0.21-0.34-0.22-0.5-0.36C139.27,230.75,139.11,230.3,138.72,230.02
					c-0.2-0.15-0.4,0.19-0.2,0.34c0.25,0.18,0.4,0.47,0.59,0.71c0.2,0.26,0.45,0.45,0.77,0.55c-0.05-0.05-0.09-0.09-0.14-0.14
					c0.01,0.03,0.02,0.08,0.03,0.11c0.05,0.07-0.01-0.09,0.02-0.08c0,0-0.17,0.06-0.19,0.06c-0.22,0.04-0.44,0.03-0.66,0.01
					c-0.42-0.02-0.88-0.05-1.28-0.16c-0.57-0.16-0.9-0.74-1.33-1.1c-0.1-0.08-0.21-0.16-0.32-0.23c-0.1-0.07-0.25-0.13-0.32-0.24
					c-0.04-0.06-0.05-0.02,0-0.06c0.06-0.05,0.14-0.07,0.22-0.08c0.17-0.01,0.34,0.07,0.49,0.13c0.34,0.13,0.67,0.18,1.02,0.22
					c0.38,0.04,0.77,0.08,1.09,0.3C138.74,230.49,138.93,230.16,138.72,230.02z"/>
			</g>
		</g>
		<g>
			
				<linearGradient id="SVGID_00000072240279369640068760000000409935035945669547_" gradientUnits="userSpaceOnUse" x1="487.9376" y1="-110.8344" x2="497.2999" y2="-110.8344" gradientTransform="matrix(0.9568 -0.2906 0.2906 0.9568 -292.9965 480.214)">
				<stop  offset="0" style="stop-color:#C3E2F4"/>
				<stop  offset="1" style="stop-color:#FFFFFF"/>
			</linearGradient>
			<path style="fill:url(#SVGID_00000072240279369640068760000000409935035945669547_);" d="M150.51,231.58
				c-0.94-0.21-1.78-0.21-2.7-0.56c-0.63-0.24-1.19-0.41-1.87-0.45c-0.73-0.04-1.46-0.13-2.19-0.18c-0.43-0.03-0.87,0.06-1.26-0.11
				c-0.37-0.16-0.59-0.36-1.01-0.45l-0.51,0.26c0.21,0.75,0.53,0.84,1.2,1.07c0.54,0.18,0.78,0.85,1.38,1.04
				c0.57,0.18,1.23,0.1,1.82,0.16c0.77,0.08,1.42,0.3,2.21,0.22c0.86-0.08,1.65-0.49,2.51-0.55c0.19-0.01,1.09,0.1,1.17-0.09
				C151.43,231.58,150.72,231.63,150.51,231.58z"/>
			<g>
				<path class="st4" d="M150.56,231.39c-0.97-0.21-1.93-0.29-2.87-0.62c-0.88-0.31-1.72-0.38-2.64-0.46
					c-0.49-0.04-0.98-0.11-1.48-0.11c-0.28-0.01-0.57,0.03-0.85-0.04c-0.25-0.07-0.45-0.22-0.68-0.33c-0.52-0.25-0.68-0.14-1.16,0.1
					c-0.07,0.04-0.11,0.14-0.09,0.22c0.14,0.47,0.36,0.81,0.82,1.02c0.25,0.11,0.53,0.16,0.76,0.33c0.23,0.17,0.39,0.41,0.61,0.59
					c0.47,0.4,1.06,0.43,1.65,0.44c0.81,0.02,1.59,0.22,2.39,0.26c0.78,0.04,1.49-0.2,2.23-0.4c0.35-0.09,0.69-0.16,1.05-0.15
					c0.24,0,0.49,0.04,0.73,0c0.26-0.04,0.54-0.18,0.44-0.5C151.35,231.39,150.85,231.44,150.56,231.39
					c-0.24-0.04-0.35,0.34-0.1,0.38c0.12,0.02,0.25,0.02,0.38,0.04c0.28,0.04,0.3,0.05,0,0.06c-0.33,0.01-0.64-0.04-0.97,0
					c-0.58,0.08-1.13,0.28-1.69,0.42c-0.72,0.17-1.37,0.1-2.09-0.02c-0.51-0.09-1.01-0.12-1.53-0.13c-0.65-0.02-1.1-0.12-1.56-0.59
					c-0.28-0.28-0.51-0.48-0.88-0.61c-0.5-0.18-0.77-0.35-0.93-0.89c-0.03,0.07-0.06,0.15-0.09,0.22c0.13-0.07,0.35-0.25,0.49-0.25
					c0.04,0,0.34,0.19,0.41,0.22c0.16,0.08,0.3,0.17,0.47,0.24c0.37,0.14,0.74,0.11,1.13,0.11c0.49,0.01,0.99,0.07,1.48,0.11
					c0.96,0.09,1.8,0.2,2.71,0.51c0.88,0.31,1.8,0.36,2.7,0.56C150.7,231.82,150.81,231.45,150.56,231.39z"/>
			</g>
		</g>
		<g>
			
				<linearGradient id="SVGID_00000049909564695086291560000010066910396994781606_" gradientUnits="userSpaceOnUse" x1="480.4351" y1="-118.1586" x2="485.7447" y2="-118.1586" gradientTransform="matrix(0.9568 -0.2906 0.2906 0.9568 -292.9965 480.214)">
				<stop  offset="0" style="stop-color:#C3E2F4"/>
				<stop  offset="1" style="stop-color:#FFFFFF"/>
			</linearGradient>
			<path style="fill:url(#SVGID_00000049909564695086291560000010066910396994781606_);" d="M134.08,227.6
				c1.03,0.08,2.78-0.15,3.61,0.49l0.37-0.06c-0.37-0.37-0.83-0.66-1.27-0.94c-0.51-0.33-0.75-0.82-1.21-1.15
				c-0.58-0.41-1.44-0.24-2.11-0.46c-0.7-0.23-1.09-0.43-1.67,0.21c0.22,0.48,0.26,1.18,0.55,1.54
				C132.8,227.79,133.49,227.55,134.08,227.6z"/>
			<g>
				<path class="st4" d="M134.08,227.79c0.77,0.05,1.55-0.02,2.32,0.07c0.37,0.04,0.76,0.11,1.07,0.31
					c0.22,0.14,0.38,0.08,0.63,0.04c0.15-0.02,0.18-0.23,0.09-0.33c-0.52-0.51-1.21-0.79-1.71-1.31c-0.46-0.48-0.81-0.95-1.5-1.08
					c-0.32-0.06-0.64-0.07-0.96-0.11c-0.34-0.04-0.64-0.16-0.96-0.25c-0.57-0.16-1-0.02-1.4,0.41c-0.07,0.07-0.07,0.15-0.03,0.24
					c0.24,0.57,0.23,1.32,0.74,1.74C132.87,227.92,133.5,227.76,134.08,227.79c0.25,0.01,0.25-0.37,0-0.39
					c-0.51-0.03-1.2,0.17-1.57-0.29c-0.33-0.41-0.34-1.05-0.55-1.53c-0.01,0.08-0.02,0.16-0.03,0.24c0.19-0.2,0.39-0.38,0.68-0.37
					c0.24,0.01,0.48,0.11,0.71,0.18c0.57,0.19,1.17,0.12,1.74,0.28c0.59,0.16,0.88,0.72,1.31,1.1c0.48,0.43,1.08,0.69,1.54,1.15
					c0.03-0.11,0.06-0.22,0.09-0.33c-0.1,0.02-0.22,0.06-0.32,0.05c-0.06,0.01-0.05,0.01,0.05-0.01c-0.03-0.02-0.06-0.04-0.09-0.06
					c-0.06-0.05-0.16-0.08-0.23-0.11c-0.32-0.14-0.66-0.2-1.01-0.23c-0.77-0.08-1.55-0.02-2.32-0.07
					C133.83,227.38,133.83,227.77,134.08,227.79z"/>
			</g>
		</g>
	</g>
	<g>
		<g>
			
				<linearGradient id="SVGID_00000067233526950720684670000002175379172401724591_" gradientUnits="userSpaceOnUse" x1="667.4065" y1="-151.3924" x2="676.8979" y2="-151.3924" gradientTransform="matrix(0.9568 -0.2906 0.2906 0.9568 -292.9965 480.214)">
				<stop  offset="0" style="stop-color:#C3E2F4"/>
				<stop  offset="1" style="stop-color:#FFFFFF"/>
			</linearGradient>
			<path style="fill:url(#SVGID_00000067233526950720684670000002175379172401724591_);" d="M310.72,140.88
				c-0.39-0.14-0.8-0.31-1.17-0.5c-0.79-0.41-1.42-0.69-2.31-0.68c-0.64,0.01-1.23,0.04-1.88-0.04c-0.62-0.08-1.25-0.06-1.86-0.13
				c-0.33-0.04-0.62-0.2-0.91-0.3c-0.29-0.11-0.63-0.17-0.87-0.38l-0.36-0.14c-0.11-0.07-0.38-0.15-0.49-0.03
				c-0.13,0.15,0.03,0.24,0.08,0.38c0.12,0.3,0.24,0.72,0.47,0.96c0.28,0.3,0.61,0.31,0.98,0.39c0.38,0.08,0.67,0.3,1.01,0.48
				c1.36,0.72,3.19,1.19,4.71,0.85c0.54-0.12,1.08-0.12,1.63-0.15c0.45-0.02,1.15,0.05,1.55-0.21
				C311.79,141.04,311,140.98,310.72,140.88z"/>
			<g>
				<path class="st4" d="M310.78,140.69c-0.9-0.33-1.72-0.9-2.66-1.1c-0.45-0.1-0.89-0.09-1.35-0.08c-0.57,0.01-1.12-0.03-1.69-0.08
					c-0.51-0.05-1.04-0.02-1.55-0.1c-0.46-0.07-1.04-0.29-1.47-0.5c-0.33-0.16-0.99-0.65-1.34-0.29c-0.17,0.18-0.08,0.34,0,0.52
					c0.15,0.36,0.28,0.8,0.55,1.1c0.25,0.27,0.57,0.34,0.91,0.41c0.52,0.11,0.93,0.4,1.4,0.63c0.8,0.38,1.65,0.66,2.53,0.78
					c1.01,0.14,1.9-0.1,2.9-0.17c0.53-0.03,1.07-0.01,1.6-0.06c0.3-0.03,0.69-0.08,0.91-0.31
					C311.99,140.93,311.07,140.78,310.78,140.69c-0.24-0.07-0.34,0.3-0.1,0.38c0.08,0.02,0.53,0.13,0.53,0.13
					c-0.02,0.17-0.89,0.17-1.04,0.17c-0.73,0.01-1.46,0.05-2.18,0.18c-1.54,0.29-3.2-0.14-4.55-0.88c-0.27-0.15-0.53-0.32-0.83-0.41
					c-0.42-0.13-0.83-0.1-1.12-0.48c-0.05-0.06-0.47-0.82-0.42-0.92c0.05-0.09,0.44,0.09,0.51,0.13c0.53,0.27,1.12,0.56,1.71,0.69
					c0.72,0.17,1.53,0.12,2.27,0.19c0.92,0.08,1.87-0.1,2.76,0.17c0.82,0.25,1.56,0.73,2.36,1.02
					C310.91,141.15,311.01,140.78,310.78,140.69z"/>
			</g>
		</g>
		<g>
			
				<linearGradient id="SVGID_00000155132616233189953480000004839984363306132400_" gradientUnits="userSpaceOnUse" x1="662.7399" y1="-156.2883" x2="666.0779" y2="-156.2883" gradientTransform="matrix(0.9568 -0.2906 0.2906 0.9568 -292.9965 480.214)">
				<stop  offset="0" style="stop-color:#C3E2F4"/>
				<stop  offset="1" style="stop-color:#FFFFFF"/>
			</linearGradient>
			<path style="fill:url(#SVGID_00000155132616233189953480000004839984363306132400_);" d="M299.04,138.37
				c-0.1-0.71-0.89-1.22-1.5-1.39c-0.17-0.05-0.4-0.05-0.55-0.13c-0.18-0.09-0.29-0.24-0.47-0.36c-0.17-0.1-0.36-0.15-0.52-0.26
				c-0.19-0.13-0.34-0.41-0.58-0.45c-0.51-0.1-0.35,0.43-0.12,0.64c0.3,0.27,0.67,0.45,0.97,0.73c0.33,0.31,0.78,0.48,1.07,0.84
				c0.35,0.42,0.44,0.78,0.93,1.08c0.28,0.17,0.83,0.55,1.09,0.27c0.32-0.34-0.08-0.67-0.28-0.91L299.04,138.37z"/>
			<g>
				<path class="st4" d="M299.23,138.32c-0.15-0.89-1.1-1.43-1.91-1.58c-0.28-0.05-0.41-0.22-0.63-0.38
					c-0.22-0.16-0.49-0.21-0.69-0.41c-0.23-0.23-0.67-0.59-0.98-0.27c-0.23,0.23-0.06,0.62,0.12,0.82c0.14,0.16,0.34,0.28,0.51,0.4
					c0.24,0.16,0.45,0.35,0.68,0.53c0.18,0.14,0.38,0.25,0.56,0.39c0.23,0.17,0.4,0.38,0.55,0.61c0.11,0.17,0.22,0.34,0.36,0.49
					c0.17,0.18,0.37,0.31,0.58,0.43c0.36,0.22,0.91,0.47,1.21,0.02c0.29-0.43-0.12-0.85-0.4-1.15c-0.17-0.18-0.45,0.09-0.27,0.28
					c0.12,0.12,0.63,0.61,0.27,0.73c-0.13,0.04-0.31-0.05-0.41-0.11c-0.15-0.08-0.3-0.17-0.44-0.26c-0.32-0.22-0.49-0.57-0.72-0.87
					c-0.24-0.32-0.55-0.52-0.88-0.75c-0.16-0.11-0.3-0.24-0.46-0.37c-0.17-0.14-0.36-0.26-0.53-0.38c-0.13-0.09-0.27-0.18-0.36-0.32
					c-0.03-0.05-0.06-0.1-0.07-0.15c-0.01-0.03,0.01-0.1-0.01-0.07c0,0,0.1,0,0.15,0.02c0.07,0.03,0.12,0.08,0.17,0.13
					c0.13,0.13,0.25,0.27,0.42,0.35c0.18,0.09,0.37,0.15,0.53,0.29c0.16,0.13,0.3,0.27,0.5,0.33c0.21,0.06,0.42,0.07,0.63,0.15
					c0.17,0.06,0.33,0.15,0.48,0.25c0.34,0.22,0.62,0.54,0.69,0.95C298.89,138.66,299.27,138.56,299.23,138.32z"/>
			</g>
		</g>
	</g>
</g>
</svg>
