<?xml version="1.0" encoding="utf-8"?>
<!-- Generator: Adobe Illustrator 26.3.1, SVG Export Plug-In . SVG Version: 6.00 Build 0)  -->
<svg version="1.1" id="圖層_1" xmlns="http://www.w3.org/2000/svg" xmlns:xlink="http://www.w3.org/1999/xlink" x="0px" y="0px"
	 viewBox="0 0 61.8 45.3" style="enable-background:new 0 0 61.8 45.3;" xml:space="preserve">
<style type="text/css">
	.st0{fill:#FFFFFF;}
</style>
<path class="st0" d="M60.1,5c0.6,0.9,0.3,2,0,2.2c-1.3,0.9-2.5,1.4-2.7,1.3c-0.2-0.1-1.7,1.3-3.9,2.3s-3,1.2-3.7,2
	c-0.7,0.9-0.3,1.5-1,2.7s-1,1-1.5,2.2s-0.5,1.6-0.9,2.7c-0.4,1.1-1.2,3-1.5,4.3c-0.3,1.2-0.8,1.7-1.5,1.4c-0.6-0.3-0.5-1.5,0.1-2.8
	c0.5-1.3,0.7-3.4,0.9-4.9s0.5-3.6,0.7-4s-2.5,0.6-3.2,0.9s-0.7,1.3-1,2.8s-0.8,4.8-1,6.2c-0.2,1.4-1,5-1,5.8c0,0.9-0.5,1.5-0.8,0.6
	c-0.3-0.9-0.1-7.4-0.2-9.2c-0.1-1.9-0.2-4.3,0.1-4.8c0.3-0.5-1.4,0.3-4.5,1.1c-3,0.8-6.3,2.1-7.9,2.6s-3.8,0.2-4.3,0.2
	c-0.5,0-3.4,2-4.5,3.1c-1.1,1.1-1.6,0.9-2.3,2s-1.3,3-2.3,4s-2.1,0.9-2.1,0.9s0.4,1.9,0.4,3.5c-0.1,1.6,0,3,0.3,4.8
	c0.2,1.7,1.2,4.4-2.1,5.3c0.2-1.3,0.6-1.5-0.8-2.8c-1.4-1.3-2.4-2.3-2-5.2s0-2.7-1.8-2.6c-1.8,0.1-2.7-1.5-2.7-1.5s1.2-0.3,2.5-1.2
	c1.3-0.9,3.5-1.9,3.7-1.6c0.7-3.3,0.8-5.9,3.3-10.9c2.5-5,7.1-9.3,7.7-9.9C19.1,8,17.6,7,17.6,7s2.1-1,4.8-1.6
	c2.8-0.6,4.8-0.8,8.1-1.5s6-1.7,14.4-1.8c8.4-0.1,8.4,0.5,9.9,1s1.5,0.4,2.7,0.6c1.2,0.2,1.8,0,2.5,0.5S60.1,5,60.1,5z"/>
</svg>
