<?xml version="1.0" encoding="utf-8"?>
<!-- Generator: Adobe Illustrator 26.3.1, SVG Export Plug-In . SVG Version: 6.00 Build 0)  -->
<svg version="1.1" id="圖層_1" xmlns="http://www.w3.org/2000/svg" xmlns:xlink="http://www.w3.org/1999/xlink" x="0px" y="0px"
	 viewBox="0 0 61.83 45.31" style="enable-background:new 0 0 61.83 45.31;" xml:space="preserve">
<style type="text/css">
	.st0{fill:#193059;}
</style>
<path class="st0" d="M60.1,4.97c0.61,0.92,0.27,1.95-0.03,2.16C58.79,8,57.52,8.54,57.33,8.47c-0.19-0.08-1.73,1.27-3.92,2.27
	s-2.99,1.19-3.65,2.04c-0.65,0.85-0.27,1.54-1.04,2.66s-0.96,1.04-1.54,2.16s-0.5,1.62-0.88,2.73c-0.38,1.12-1.19,3.04-1.46,4.27
	c-0.27,1.23-0.84,1.66-1.46,1.35c-0.61-0.31-0.46-1.54,0.08-2.81c0.54-1.27,0.73-3.43,0.92-4.93s0.5-3.62,0.69-4
	s-2.46,0.58-3.19,0.89s-0.69,1.27-0.96,2.85s-0.84,4.81-1.04,6.24c-0.19,1.42-0.96,4.97-1,5.81c-0.04,0.85-0.54,1.46-0.81,0.62
	c-0.27-0.85-0.12-7.35-0.19-9.2c-0.08-1.85-0.15-4.27,0.12-4.81c0.27-0.54-1.42,0.31-4.45,1.12c-3.03,0.81-6.26,2.12-7.87,2.58
	s-3.8,0.19-4.34,0.23c-0.54,0.04-3.38,2.04-4.49,3.12c-1.11,1.08-1.57,0.85-2.34,2s-1.34,3-2.26,4.04s-2.11,0.89-2.11,0.89
	s0.42,1.92,0.35,3.54c-0.08,1.62,0.04,3.04,0.27,4.81c0.24,1.74,1.24,4.4-2.1,5.32c0.23-1.35,0.61-1.46-0.81-2.81
	c-1.42-1.35-2.38-2.35-1.96-5.16s0.04-2.69-1.8-2.62c-1.84,0.08-2.69-1.5-2.69-1.5s1.15-0.31,2.46-1.19
	c1.31-0.89,3.49-1.85,3.68-1.62c0.73-3.27,0.81-5.85,3.26-10.89c2.46-5.04,7.14-9.28,7.72-9.85C19.1,8.04,17.64,7,17.64,7
	s2.07-1,4.84-1.62c2.76-0.62,4.76-0.85,8.06-1.54s5.95-1.73,14.36-1.81c8.41-0.08,8.37,0.46,9.94,1s1.5,0.38,2.73,0.58
	c1.23,0.19,1.78,0.05,2.48,0.49S60.1,4.97,60.1,4.97z"/>
</svg>
